<svg id="Group_112" data-name="Group 112" xmlns="http://www.w3.org/2000/svg" width="872" height="1080" viewBox="0 0 872 1080">
  <rect id="Rectangle_1" data-name="Rectangle 1" width="872" height="1080" fill="#e9f0ff"/>
  <g id="Group_57" data-name="Group 57" transform="translate(101.087 230.708)">
    <g id="Group_19" data-name="Group 19" transform="translate(372.627 93.457)">
      <g id="Group_15" data-name="Group 15" transform="translate(0)">
        <path id="Path_17" data-name="Path 17" d="M366.667,205.641l-34.5-19.917,34.5-19.916,34.5,19.916h0l34.5,19.917-34.5,19.917h0l-34.5,19.917-34.5-19.917,34.5-19.917Z" transform="translate(-332.17 29.86)" fill="#d4ecff"/>
        <path id="Path_18" data-name="Path 18" d="M395.879,257.365V111.309l-34.5-19.917V237.449Z" transform="translate(-361.382 -71.476)" fill="#173d7a"/>
        <path id="Path_19" data-name="Path 19" d="M346.776,111.309l34.5-19.917V237.449l-34.5,19.917Z" transform="translate(-312.279 -71.476)" fill="#396caa"/>
        <path id="Path_20" data-name="Path 20" d="M346.776,102.876l34.5-19.916,34.5,19.916-34.5,19.917Z" transform="translate(-346.776 -82.96)" fill="#d4ecff"/>
      </g>
      <g id="Group_16" data-name="Group 16" transform="translate(0 172.612)">
        <path id="Path_21" data-name="Path 21" d="M361.382,175.962l34.5-19.916v13.278l-34.5,19.917Z" transform="translate(-361.382 -156.046)" fill="#95d359"/>
      </g>
      <g id="Group_17" data-name="Group 17" transform="translate(34.497 59.75)">
        <path id="Path_22" data-name="Path 22" d="M381.273,242.831V136.608l-34.5-19.917V222.914Z" transform="translate(-346.776 -96.775)" fill="#c13d1a"/>
        <path id="Path_23" data-name="Path 23" d="M332.17,136.608l34.5-19.917V222.914l-34.5,19.917Z" transform="translate(-297.673 -96.775)" fill="#db5126"/>
        <path id="Path_24" data-name="Path 24" d="M332.17,128.175l34.5-19.917,34.5,19.917-34.5,19.917Z" transform="translate(-332.17 -108.258)" fill="#ef602e"/>
        <path id="Path_25" data-name="Path 25" d="M381.273,242.831V136.608l-34.5-19.917V222.914Z" transform="translate(-346.776 -96.775)" fill="#396caa"/>
        <path id="Path_26" data-name="Path 26" d="M332.17,136.608l34.5-19.917V222.914l-34.5,19.917Z" transform="translate(-297.673 -96.775)" fill="#5793ce"/>
        <path id="Path_27" data-name="Path 27" d="M332.17,128.175l34.5-19.917,34.5,19.917-34.5,19.917Z" transform="translate(-332.17 -108.258)" fill="#d4ecff"/>
      </g>
      <g id="Group_18" data-name="Group 18" transform="translate(0 126.139)">
        <path id="Path_28" data-name="Path 28" d="M395.879,224.468v-59.75l-34.5-19.917v59.75Z" transform="translate(-361.382 -124.885)" fill="#173d7a"/>
        <path id="Path_29" data-name="Path 29" d="M346.776,164.718l34.5-19.917v59.75l-34.5,19.917Z" transform="translate(-312.279 -124.885)" fill="#396caa"/>
        <path id="Path_30" data-name="Path 30" d="M346.776,156.285l34.5-19.917,34.5,19.917-34.5,19.917Z" transform="translate(-346.776 -136.368)" fill="#d4ecff"/>
      </g>
    </g>
    <g id="Group_25" data-name="Group 25" transform="translate(29.241 120.374)">
      <g id="Group_22" data-name="Group 22" transform="translate(0)">
        <path id="Path_31" data-name="Path 31" d="M523.509,493.653,784.037,343.237c7.369-4.254,6.445-11.686-2.066-16.6l-177.4-102.387c-8.509-4.912-21.383-5.446-28.752-1.19L315.294,373.472c-7.371,4.256-6.448,11.688,2.064,16.6l177.4,102.387C503.267,497.375,516.141,497.909,523.509,493.653Z" transform="translate(-290.526 76.992)" fill="#d4ecff"/>
        <g id="Group_20" data-name="Group 20">
          <path id="Path_32" data-name="Path 32" d="M410.262,248.939,675.087,96.171c3.41-1.967,6.544-2.272,9.067-1.219l-.01-.031.435.2c.033.017.071.031.1.05l8.623,4.057-9.36,4.657c0,.177.019.34.019.517l-.08,217.514c0,10.885-6.74,23.594-15.049,28.384L411.072,499l-1.464,12.132-9.412-4.49c-3.1-1.823-5.066-5.94-5.064-11.8l.083-217.511C395.218,266.44,401.956,253.731,410.262,248.939Z" transform="translate(-395.133 -94.357)" fill="#173d7a"/>
          <path id="Path_33" data-name="Path 33" d="M405.648,248.939,670.472,96.171c3.41-1.967,6.544-2.272,9.067-1.219l-.01-.031.435.2c.033.017.071.031.1.05l8.623,4.057-9.36,4.657c0,.177.019.34.019.517L679.3,247.759,558.775,342.985,395.133,260.63C397.847,255.59,401.555,251.3,405.648,248.939Z" transform="translate(-390.518 -94.357)" fill="#396caa"/>
          <path id="Path_34" data-name="Path 34" d="M515.865,161.258l25.953,10.918-19.6,15.1-16.362-6.967A38.085,38.085,0,0,1,515.865,161.258Z" transform="translate(-505.16 -3.253)" fill="#274f89"/>
          <path id="Path_35" data-name="Path 35" d="M407.822,507.619,672.647,354.848c8.306-4.79,15.044-17.5,15.047-28.384l.083-217.511c0-10.885-6.726-15.826-15.033-11.034L407.917,250.688c-8.306,4.792-15.042,17.5-15.047,28.386l-.08,217.511C392.785,507.47,399.516,512.411,407.822,507.619Z" transform="translate(-384.07 -91.998)" fill="#d4ecff"/>
          <path id="Path_36" data-name="Path 36" d="M410.767,482.24,658.1,339.632c7.6-4.386,13.767-16.015,13.769-25.977l.076-199.04c0-9.962-6.157-14.482-13.757-10.1L410.854,247.129c-7.6,4.383-13.767,16.013-13.769,25.975l-.076,199.04C397.008,482.106,403.167,486.626,410.767,482.24Z" transform="translate(-378.206 -82.799)" fill="#fff"/>
          <path id="Path_37" data-name="Path 37" d="M410.767,482.24,658.1,339.632c7.6-4.386,13.767-16.015,13.769-25.977l.076-199.04c0-9.962-6.157-14.482-13.757-10.1L410.854,247.129c-7.6,4.383-13.767,16.013-13.769,25.975l-.076,199.04C397.008,482.106,403.167,486.626,410.767,482.24Z" transform="translate(-378.206 -82.799)" fill="#fff"/>
        </g>
        <path id="Path_38" data-name="Path 38" d="M310.328,354.09l35.613-4.7L575.825,216.664c7.369-4.254,20.243-3.72,28.752,1.193l162.9,94.012,21.535-2.844v12.22l-.021,0c.142,2.822-1.467,5.541-4.943,7.548L523.514,479.209c-7.369,4.256-20.243,3.722-28.752-1.19l-177.4-102.387c-4.787-2.766-7.175-6.327-7.036-9.671h0Z" transform="translate(-290.531 68.286)" fill="#173d7a"/>
        <path id="Path_39" data-name="Path 39" d="M310.322,243.124l16.332-9.43H506.218l88.521,51.073,21.535-2.844v12.22l-.021,0c.142,2.822-1.467,5.541-4.943,7.548L350.781,452.107c-3.895,2.248-9.327,3.148-14.839,2.782Z" transform="translate(-117.798 95.388)" fill="#396caa"/>
        <path id="Path_40" data-name="Path 40" d="M310.322,255.379l9.556-1.263v12.22l-.021,0c.142,2.822-1.467,5.541-4.943,7.548l-4.591,2.65Z" transform="translate(178.598 123.196)" fill="#5793ce"/>
        <path id="Path_41" data-name="Path 41" d="M448.276,343.277c-6.984,2.65-16.972,2.074-24.43-1.516V314.508h24.43Z" transform="translate(-217.917 205.437)" fill="#274f89"/>
        <path id="Path_42" data-name="Path 42" d="M523.509,478.684,784.037,328.268c7.369-4.254,6.445-11.686-2.066-16.6L604.572,209.28c-8.509-4.912-21.383-5.446-28.752-1.19L315.294,358.5c-7.371,4.256-6.448,11.688,2.064,16.6l177.4,102.387C503.267,482.406,516.141,482.94,523.509,478.684Z" transform="translate(-290.526 56.608)" fill="#d4ecff"/>
        <path id="Path_43" data-name="Path 43" d="M317.348,305.155l177.4,102.387c8.509,4.912,21.383,5.446,28.752,1.193L784.027,258.319a9.706,9.706,0,0,0,4.582-5.012c1.152,3.486-.319,7.01-4.582,9.475L523.5,413.2c-7.369,4.256-20.243,3.722-28.752-1.19l-177.4-102.39c-5.72-3.3-8-7.739-6.646-11.589C311.541,300.566,313.761,303.083,317.348,305.155Z" transform="translate(-290.516 122.096)" fill="#fff"/>
        <g id="Group_21" data-name="Group 21" transform="translate(46.383 271.087)">
          <path id="Path_44" data-name="Path 44" d="M372.589,246.32l11.788-6.807c.947-.546.829-1.5-.265-2.13L370.2,229.349a4.1,4.1,0,0,0-3.694-.151L354.718,236c-.947.548-.827,1.5.265,2.133l13.916,8.032A4.106,4.106,0,0,0,372.589,246.32Z" transform="translate(-36.268 -182.326)" fill="#173d7a"/>
          <path id="Path_45" data-name="Path 45" d="M380.3,250.77l11.788-6.807c.947-.546.829-1.5-.265-2.13L377.906,233.8a4.1,4.1,0,0,0-3.694-.151l-11.788,6.8c-.945.548-.827,1.5.267,2.133l13.913,8.032A4.106,4.106,0,0,0,380.3,250.77Z" transform="translate(-62.179 -176.267)" fill="#173d7a"/>
          <path id="Path_46" data-name="Path 46" d="M388.006,255.22l11.788-6.8c.945-.548.827-1.5-.267-2.133l-13.913-8.032a4.091,4.091,0,0,0-3.691-.154l-11.788,6.8c-.947.548-.829,1.5.265,2.133l13.913,8.032A4.1,4.1,0,0,0,388.006,255.22Z" transform="translate(-88.091 -170.207)" fill="#173d7a"/>
          <path id="Path_47" data-name="Path 47" d="M396.43,250.8l11.788-6.807c.947-.546.829-1.5-.265-2.13l-11.679-6.743a4.1,4.1,0,0,0-3.694-.154l-11.788,6.8c-.945.548-.827,1.5.267,2.133l11.679,6.743A4.106,4.106,0,0,0,396.43,250.8Z" transform="translate(-121.694 -174.468)" fill="#173d7a"/>
          <path id="Path_48" data-name="Path 48" d="M404.14,255.251l11.788-6.8c.945-.548.827-1.5-.267-2.133l-11.679-6.743a4.106,4.106,0,0,0-3.691-.154L388.5,246.224c-.947.546-.829,1.5.264,2.13l11.679,6.743A4.1,4.1,0,0,0,404.14,255.251Z" transform="translate(-147.606 -168.407)" fill="#173d7a"/>
          <path id="Path_49" data-name="Path 49" d="M411.847,259.7l11.788-6.8c.947-.548.827-1.5-.265-2.133l-11.681-6.743a4.106,4.106,0,0,0-3.691-.154l-11.787,6.807c-.947.546-.829,1.5.264,2.13l11.679,6.743A4.1,4.1,0,0,0,411.847,259.7Z" transform="translate(-173.518 -162.347)" fill="#173d7a"/>
          <path id="Path_50" data-name="Path 50" d="M419.554,264.151l11.788-6.8c.947-.548.829-1.5-.264-2.133L419.4,248.471a4.111,4.111,0,0,0-3.694-.154l-11.788,6.807c-.947.546-.826,1.5.265,2.13L415.863,264A4.1,4.1,0,0,0,419.554,264.151Z" transform="translate(-199.429 -156.287)" fill="#173d7a"/>
          <path id="Path_51" data-name="Path 51" d="M427.262,268.6l11.788-6.8c.947-.548.829-1.5-.265-2.133l-11.679-6.743a4.111,4.111,0,0,0-3.694-.154l-11.788,6.807c-.947.546-.827,1.5.265,2.13l11.681,6.745A4.1,4.1,0,0,0,427.262,268.6Z" transform="translate(-225.342 -150.227)" fill="#173d7a"/>
          <path id="Path_52" data-name="Path 52" d="M434.971,273.053l11.788-6.807c.945-.548.827-1.5-.267-2.133l-11.679-6.743a4.106,4.106,0,0,0-3.691-.154l-11.79,6.807c-.945.546-.827,1.5.267,2.13l11.679,6.745A4.111,4.111,0,0,0,434.971,273.053Z" transform="translate(-251.253 -144.167)" fill="#173d7a"/>
          <path id="Path_53" data-name="Path 53" d="M442.678,277.5l11.788-6.8c.947-.546.827-1.5-.265-2.133l-11.681-6.743a4.106,4.106,0,0,0-3.691-.154l-11.788,6.807c-.947.546-.829,1.5.264,2.13l11.679,6.745A4.1,4.1,0,0,0,442.678,277.5Z" transform="translate(-277.164 -138.108)" fill="#173d7a"/>
          <path id="Path_54" data-name="Path 54" d="M450.386,281.953l11.787-6.807c.947-.546.829-1.5-.264-2.133l-11.679-6.743a4.111,4.111,0,0,0-3.694-.154l-11.788,6.807c-.947.546-.829,1.5.264,2.133l11.681,6.743A4.105,4.105,0,0,0,450.386,281.953Z" transform="translate(-303.076 -132.048)" fill="#173d7a"/>
          <path id="Path_55" data-name="Path 55" d="M458.093,286.4l11.788-6.807c.947-.546.829-1.5-.265-2.133l-11.679-6.743a4.111,4.111,0,0,0-3.694-.154l-11.788,6.807c-.947.546-.827,1.5.265,2.133l11.681,6.743A4.106,4.106,0,0,0,458.093,286.4Z" transform="translate(-328.988 -125.988)" fill="#173d7a"/>
          <path id="Path_56" data-name="Path 56" d="M465.8,290.853l11.788-6.807c.945-.546.827-1.5-.267-2.13l-11.679-6.745a4.1,4.1,0,0,0-3.691-.151l-11.79,6.8c-.945.546-.827,1.5.267,2.133l11.679,6.743A4.111,4.111,0,0,0,465.8,290.853Z" transform="translate(-354.899 -119.928)" fill="#173d7a"/>
          <path id="Path_57" data-name="Path 57" d="M407.787,248.694l11.79-6.8c.945-.548.827-1.5-.267-2.133l-11.679-6.743a4.111,4.111,0,0,0-3.694-.154l-11.788,6.807c-.945.546-.827,1.5.267,2.13L404.1,248.54A4.092,4.092,0,0,0,407.787,248.694Z" transform="translate(-159.873 -177.336)" fill="#396caa"/>
          <path id="Path_58" data-name="Path 58" d="M399.965,244.179l11.787-6.807c.947-.546.829-1.5-.264-2.13L399.809,228.5a4.11,4.11,0,0,0-3.694-.154l-11.788,6.807c-.947.546-.827,1.5.264,2.133l11.681,6.743A4.106,4.106,0,0,0,399.965,244.179Z" transform="translate(-133.576 -183.487)" fill="#396caa"/>
          <path id="Path_59" data-name="Path 59" d="M386.372,244.181l25.387-14.657c.947-.548.829-1.5-.265-2.133l-11.679-6.743a4.111,4.111,0,0,0-3.694-.154l-25.387,14.657c-.947.548-.829,1.5.264,2.133l11.679,6.743A4.111,4.111,0,0,0,386.372,244.181Z" transform="translate(-101.476 -194.174)" fill="#173d7a"/>
          <path id="Path_60" data-name="Path 60" d="M393.875,237.086l20.6-11.894c.947-.548.829-1.5-.265-2.133l-11.679-6.743a4.111,4.111,0,0,0-3.694-.154l-20.6,11.9c-.947.546-.829,1.5.264,2.13l11.679,6.745A4.1,4.1,0,0,0,393.875,237.086Z" transform="translate(-121.914 -200.073)" fill="#173d7a"/>
          <path id="Path_61" data-name="Path 61" d="M415.5,253.144l11.788-6.8c.947-.548.827-1.5-.264-2.133l-11.681-6.743a4.106,4.106,0,0,0-3.691-.153l-11.787,6.807c-.947.546-.829,1.5.264,2.13L411.8,252.99A4.1,4.1,0,0,0,415.5,253.144Z" transform="translate(-185.785 -171.276)" fill="#396caa"/>
          <path id="Path_62" data-name="Path 62" d="M423.2,257.594l11.788-6.8c.947-.548.827-1.5-.264-2.133l-11.681-6.743a4.106,4.106,0,0,0-3.691-.154l-11.788,6.807c-.947.546-.829,1.5.264,2.13l11.679,6.745A4.1,4.1,0,0,0,423.2,257.594Z" transform="translate(-211.697 -165.216)" fill="#173d7a"/>
          <path id="Path_63" data-name="Path 63" d="M430.911,262.044l11.788-6.8c.947-.546.829-1.5-.265-2.133l-11.679-6.743a4.111,4.111,0,0,0-3.694-.154l-11.788,6.807c-.947.546-.827,1.5.265,2.133l11.681,6.743A4.1,4.1,0,0,0,430.911,262.044Z" transform="translate(-237.609 -159.156)" fill="#173d7a"/>
          <path id="Path_64" data-name="Path 64" d="M438.618,266.5l11.79-6.807c.945-.546.827-1.5-.267-2.133l-11.679-6.743a4.111,4.111,0,0,0-3.694-.154l-11.788,6.807c-.945.546-.827,1.5.267,2.133l11.679,6.743A4.106,4.106,0,0,0,438.618,266.5Z" transform="translate(-263.52 -153.097)" fill="#173d7a"/>
          <path id="Path_65" data-name="Path 65" d="M446.328,270.946l11.788-6.807c.945-.546.827-1.5-.267-2.133l-11.679-6.743a4.106,4.106,0,0,0-3.691-.154l-11.788,6.807c-.947.546-.829,1.5.264,2.133l11.679,6.743A4.111,4.111,0,0,0,446.328,270.946Z" transform="translate(-289.432 -147.037)" fill="#173d7a"/>
          <path id="Path_66" data-name="Path 66" d="M454.035,275.4l11.788-6.807c.947-.546.827-1.5-.264-2.133l-11.681-6.743a4.106,4.106,0,0,0-3.691-.154L438.4,266.367c-.947.546-.829,1.5.264,2.133l11.679,6.743A4.111,4.111,0,0,0,454.035,275.4Z" transform="translate(-315.344 -140.977)" fill="#173d7a"/>
          <path id="Path_67" data-name="Path 67" d="M461.742,279.846l11.788-6.807c.947-.546.829-1.5-.265-2.133l-11.679-6.743a4.1,4.1,0,0,0-3.694-.151l-11.788,6.8c-.947.548-.827,1.5.265,2.133l11.681,6.743A4.105,4.105,0,0,0,461.742,279.846Z" transform="translate(-341.255 -134.917)" fill="#173d7a"/>
          <path id="Path_68" data-name="Path 68" d="M469.449,284.3l11.787-6.807c.947-.546.829-1.5-.264-2.13l-11.679-6.745a4.1,4.1,0,0,0-3.694-.151l-11.788,6.8c-.945.546-.827,1.5.267,2.133l11.679,6.743A4.106,4.106,0,0,0,469.449,284.3Z" transform="translate(-367.166 -128.857)" fill="#173d7a"/>
          <path id="Path_69" data-name="Path 69" d="M477.159,288.746l11.788-6.807c.945-.546.827-1.5-.267-2.13L477,273.066a4.091,4.091,0,0,0-3.691-.154l-11.788,6.8c-.947.548-.829,1.5.265,2.133l11.679,6.743A4.111,4.111,0,0,0,477.159,288.746Z" transform="translate(-393.078 -122.797)" fill="#173d7a"/>
          <path id="Path_70" data-name="Path 70" d="M484.962,301.294l25.72-14.848c.947-.548.829-1.5-.265-2.133l-11.681-6.743a4.105,4.105,0,0,0-3.691-.154l-25.72,14.851c-.947.546-.829,1.5.264,2.13l11.679,6.743A4.1,4.1,0,0,0,484.962,301.294Z" transform="translate(-433.245 -116.661)" fill="#173d7a"/>
          <path id="Path_71" data-name="Path 71" d="M501.667,291.294l21.709-12.532c.945-.548.827-1.5-.267-2.133l-11.679-6.743a4.106,4.106,0,0,0-3.691-.154L486.03,282.267c-.947.546-.829,1.5.265,2.13l11.679,6.745A4.1,4.1,0,0,0,501.667,291.294Z" transform="translate(-485.39 -127.124)" fill="#173d7a"/>
          <path id="Path_72" data-name="Path 72" d="M428.994,252.275l11.788-6.807c.947-.546.827-1.5-.264-2.133l-11.681-6.743a4.106,4.106,0,0,0-3.691-.154l-11.788,6.807c-.947.546-.829,1.5.265,2.133l11.679,6.743A4.111,4.111,0,0,0,428.994,252.275Z" transform="translate(-231.162 -172.462)" fill="#173d7a"/>
          <path id="Path_73" data-name="Path 73" d="M421.094,247.714l11.788-6.807c.947-.546.829-1.5-.264-2.13l-11.679-6.745a4.1,4.1,0,0,0-3.694-.151l-11.788,6.8c-.947.548-.827,1.5.265,2.133L417.4,247.56A4.106,4.106,0,0,0,421.094,247.714Z" transform="translate(-204.606 -178.673)" fill="#173d7a"/>
          <path id="Path_74" data-name="Path 74" d="M413.2,243.153l11.788-6.8c.947-.548.827-1.5-.265-2.133l-11.681-6.743a4.091,4.091,0,0,0-3.691-.154l-11.788,6.8c-.947.548-.829,1.5.264,2.133L409.5,243A4.111,4.111,0,0,0,413.2,243.153Z" transform="translate(-178.049 -184.884)" fill="#396caa"/>
          <path id="Path_75" data-name="Path 75" d="M405.3,238.591l11.788-6.8c.947-.548.829-1.5-.264-2.133l-11.679-6.743a4.111,4.111,0,0,0-3.694-.154l-11.788,6.807c-.947.546-.827,1.5.264,2.13l11.681,6.743A4.091,4.091,0,0,0,405.3,238.591Z" transform="translate(-151.494 -191.094)" fill="#173d7a"/>
          <path id="Path_76" data-name="Path 76" d="M436.7,256.725l11.788-6.807c.947-.546.829-1.5-.264-2.133l-11.681-6.743a4.105,4.105,0,0,0-3.691-.154L421.065,247.7c-.947.546-.829,1.5.264,2.133l11.681,6.743A4.106,4.106,0,0,0,436.7,256.725Z" transform="translate(-257.074 -166.402)" fill="#173d7a"/>
          <path id="Path_77" data-name="Path 77" d="M444.409,261.175l11.788-6.807c.947-.546.829-1.5-.264-2.13l-11.679-6.745a4.1,4.1,0,0,0-3.694-.151l-11.787,6.8c-.947.546-.827,1.5.264,2.133l11.681,6.743A4.106,4.106,0,0,0,444.409,261.175Z" transform="translate(-282.986 -160.342)" fill="#173d7a"/>
          <path id="Path_78" data-name="Path 78" d="M452.116,265.625l11.79-6.807c.945-.546.827-1.5-.267-2.13l-11.679-6.745a4.1,4.1,0,0,0-3.694-.151l-11.788,6.8c-.945.548-.827,1.5.267,2.133l11.679,6.743A4.106,4.106,0,0,0,452.116,265.625Z" transform="translate(-308.897 -154.282)" fill="#173d7a"/>
          <path id="Path_79" data-name="Path 79" d="M459.825,270.075l11.787-6.807c.947-.546.827-1.5-.264-2.13l-11.681-6.745a4.1,4.1,0,0,0-3.691-.151l-11.788,6.8c-.947.548-.829,1.5.265,2.133l11.679,6.743A4.111,4.111,0,0,0,459.825,270.075Z" transform="translate(-334.808 -148.223)" fill="#173d7a"/>
          <path id="Path_80" data-name="Path 80" d="M467.533,274.525l11.787-6.807c.947-.546.829-1.5-.264-2.13l-11.681-6.745a4.1,4.1,0,0,0-3.691-.151L451.9,265.5c-.947.548-.829,1.5.264,2.133l11.679,6.743A4.111,4.111,0,0,0,467.533,274.525Z" transform="translate(-360.721 -142.163)" fill="#173d7a"/>
          <path id="Path_81" data-name="Path 81" d="M475.24,278.975l11.788-6.8c.947-.548.829-1.5-.264-2.133l-11.679-6.743a4.1,4.1,0,0,0-3.694-.154l-11.787,6.8c-.947.548-.827,1.5.265,2.133l11.681,6.743A4.105,4.105,0,0,0,475.24,278.975Z" transform="translate(-386.632 -136.103)" fill="#173d7a"/>
          <path id="Path_82" data-name="Path 82" d="M482.947,283.424l11.79-6.807c.945-.546.827-1.5-.267-2.13l-11.679-6.743a4.1,4.1,0,0,0-3.694-.154L467.31,274.4c-.945.546-.827,1.5.267,2.13l11.679,6.743A4.1,4.1,0,0,0,482.947,283.424Z" transform="translate(-412.543 -130.042)" fill="#173d7a"/>
          <path id="Path_83" data-name="Path 83" d="M490.656,287.874l11.787-6.8c.947-.548.827-1.5-.264-2.133L490.5,272.194a4.106,4.106,0,0,0-3.691-.154l-11.787,6.807c-.947.546-.829,1.5.264,2.13l11.679,6.743A4.1,4.1,0,0,0,490.656,287.874Z" transform="translate(-438.455 -123.982)" fill="#173d7a"/>
          <path id="Path_84" data-name="Path 84" d="M498.364,292.324l11.788-6.8c.947-.548.827-1.5-.265-2.133l-11.681-6.743a4.105,4.105,0,0,0-3.691-.153L482.727,283.3c-.947.546-.829,1.5.264,2.13l11.679,6.743A4.1,4.1,0,0,0,498.364,292.324Z" transform="translate(-464.367 -117.922)" fill="#173d7a"/>
          <path id="Path_85" data-name="Path 85" d="M424.934,241.268l11.787-6.807c.947-.546.829-1.5-.264-2.133l-11.679-6.743a4.111,4.111,0,0,0-3.694-.154L409.3,232.239c-.945.546-.827,1.5.267,2.133l11.679,6.743A4.106,4.106,0,0,0,424.934,241.268Z" transform="translate(-217.518 -187.451)" fill="#173d7a"/>
          <path id="Path_86" data-name="Path 86" d="M417.266,236.84l11.788-6.807c.947-.546.827-1.5-.264-2.133l-11.681-6.743a4.106,4.106,0,0,0-3.691-.154l-11.788,6.807c-.947.546-.829,1.5.265,2.133l11.679,6.743A4.111,4.111,0,0,0,417.266,236.84Z" transform="translate(-191.735 -193.481)" fill="#173d7a"/>
          <path id="Path_87" data-name="Path 87" d="M409.6,232.412l11.788-6.807c.947-.546.829-1.5-.265-2.133L409.44,216.73a4.111,4.111,0,0,0-3.694-.154l-11.788,6.807c-.947.548-.827,1.5.265,2.133l11.681,6.743A4.105,4.105,0,0,0,409.6,232.412Z" transform="translate(-165.953 -199.511)" fill="#173d7a"/>
          <path id="Path_88" data-name="Path 88" d="M401.928,227.984l11.787-6.807c.945-.546.827-1.5-.267-2.133L401.77,212.3a4.106,4.106,0,0,0-3.691-.154l-11.788,6.807c-.947.548-.829,1.5.264,2.133l11.679,6.743A4.111,4.111,0,0,0,401.928,227.984Z" transform="translate(-140.17 -205.541)" fill="#173d7a"/>
          <path id="Path_89" data-name="Path 89" d="M401.994,220.828l11.788-6.807c.947-.546.829-1.5-.264-2.133l-3.861-2.23a4.1,4.1,0,0,0-3.691-.151l-11.788,6.8c-.947.548-.829,1.5.264,2.133l3.862,2.229A4.106,4.106,0,0,0,401.994,220.828Z" transform="translate(-158.863 -209.138)" fill="#173d7a"/>
          <path id="Path_90" data-name="Path 90" d="M412,226.605l11.788-6.807c.945-.546.827-1.5-.267-2.13l-3.859-2.23a4.111,4.111,0,0,0-3.694-.154l-11.788,6.807c-.947.546-.827,1.5.265,2.13l3.861,2.23A4.111,4.111,0,0,0,412,226.605Z" transform="translate(-192.51 -201.269)" fill="#173d7a"/>
          <path id="Path_91" data-name="Path 91" d="M419.64,231.014l11.788-6.8c.947-.546.829-1.5-.264-2.133l-3.861-2.23a4.1,4.1,0,0,0-3.691-.151l-11.788,6.8c-.947.546-.829,1.5.264,2.133l3.862,2.23A4.1,4.1,0,0,0,419.64,231.014Z" transform="translate(-218.185 -195.265)" fill="#173d7a"/>
          <path id="Path_92" data-name="Path 92" d="M427.28,235.424l11.788-6.807c.945-.546.827-1.5-.267-2.13l-3.859-2.229a4.111,4.111,0,0,0-3.694-.154l-11.788,6.807c-.947.546-.827,1.5.265,2.13l3.861,2.229A4.111,4.111,0,0,0,427.28,235.424Z" transform="translate(-243.861 -189.259)" fill="#173d7a"/>
          <path id="Path_93" data-name="Path 93" d="M434.915,239.833l11.787-6.8c.947-.548.829-1.5-.265-2.133l-3.861-2.23a4.1,4.1,0,0,0-3.691-.151l-11.788,6.8c-.947.546-.829,1.5.265,2.133l3.862,2.229A4.1,4.1,0,0,0,434.915,239.833Z" transform="translate(-269.536 -183.255)" fill="#173d7a"/>
          <path id="Path_94" data-name="Path 94" d="M477.554,264.451l11.79-6.807c.945-.546.827-1.5-.267-2.13l-3.861-2.23a4.106,4.106,0,0,0-3.691-.153l-11.788,6.807c-.947.546-.829,1.5.265,2.13l3.862,2.23A4.106,4.106,0,0,0,477.554,264.451Z" transform="translate(-412.878 -149.732)" fill="#173d7a"/>
          <path id="Path_95" data-name="Path 95" d="M485.192,268.86l11.787-6.8c.947-.548.829-1.5-.264-2.133l-3.862-2.229a4.106,4.106,0,0,0-3.691-.154l-11.79,6.807c-.945.548-.827,1.5.267,2.133l3.862,2.229A4.1,4.1,0,0,0,485.192,268.86Z" transform="translate(-438.552 -143.728)" fill="#173d7a"/>
          <path id="Path_96" data-name="Path 96" d="M492.831,273.27l11.788-6.807c.945-.546.827-1.5-.267-2.13l-3.859-2.23a4.11,4.11,0,0,0-3.694-.154l-11.788,6.807c-.947.546-.827,1.5.265,2.13l3.862,2.229A4.111,4.111,0,0,0,492.831,273.27Z" transform="translate(-464.228 -137.722)" fill="#173d7a"/>
          <path id="Path_97" data-name="Path 97" d="M500.466,277.679l11.788-6.8c.947-.548.829-1.5-.264-2.133l-3.861-2.23a4.106,4.106,0,0,0-3.691-.153l-11.787,6.807c-.947.548-.829,1.5.264,2.133l3.861,2.23A4.1,4.1,0,0,0,500.466,277.679Z" transform="translate(-489.902 -131.718)" fill="#173d7a"/>
          <path id="Path_98" data-name="Path 98" d="M432.644,245.718l11.788-6.807c.945-.546.827-1.5-.267-2.133l-11.679-6.743a4.106,4.106,0,0,0-3.691-.154l-11.788,6.807c-.947.546-.829,1.5.265,2.133l11.679,6.743A4.111,4.111,0,0,0,432.644,245.718Z" transform="translate(-243.43 -181.391)" fill="#173d7a"/>
          <path id="Path_99" data-name="Path 99" d="M440.351,250.168l11.788-6.807c.947-.546.827-1.5-.264-2.133l-11.681-6.743a4.1,4.1,0,0,0-3.691-.151l-11.788,6.8c-.947.548-.829,1.5.264,2.133l11.679,6.743A4.111,4.111,0,0,0,440.351,250.168Z" transform="translate(-269.341 -175.331)" fill="#173d7a"/>
          <path id="Path_100" data-name="Path 100" d="M448.058,254.618l11.788-6.807c.947-.546.829-1.5-.264-2.13L447.9,238.936a4.1,4.1,0,0,0-3.694-.151l-11.788,6.8c-.947.548-.827,1.5.264,2.133l11.681,6.743A4.106,4.106,0,0,0,448.058,254.618Z" transform="translate(-295.253 -169.271)" fill="#173d7a"/>
          <path id="Path_101" data-name="Path 101" d="M455.765,259.068l11.788-6.807c.947-.546.829-1.5-.265-2.13l-11.679-6.743a4.1,4.1,0,0,0-3.694-.154l-11.788,6.8c-.945.548-.827,1.5.267,2.133l11.679,6.743A4.106,4.106,0,0,0,455.765,259.068Z" transform="translate(-321.164 -163.211)" fill="#173d7a"/>
          <path id="Path_102" data-name="Path 102" d="M463.475,263.518l11.788-6.807c.945-.546.827-1.5-.267-2.13l-11.679-6.745a4.1,4.1,0,0,0-3.691-.151l-11.79,6.8c-.945.548-.827,1.5.267,2.133l11.679,6.743A4.111,4.111,0,0,0,463.475,263.518Z" transform="translate(-347.076 -157.152)" fill="#173d7a"/>
          <path id="Path_103" data-name="Path 103" d="M471.182,267.968l11.788-6.8c.947-.548.827-1.5-.264-2.133l-11.681-6.743a4.091,4.091,0,0,0-3.691-.154l-11.788,6.8c-.947.548-.829,1.5.264,2.133l11.679,6.743A4.111,4.111,0,0,0,471.182,267.968Z" transform="translate(-372.988 -151.092)" fill="#173d7a"/>
          <path id="Path_104" data-name="Path 104" d="M478.89,272.417l11.788-6.8c.947-.548.829-1.5-.265-2.133l-11.679-6.743a4.1,4.1,0,0,0-3.694-.154l-11.788,6.807c-.947.546-.829,1.5.264,2.13l11.681,6.743A4.1,4.1,0,0,0,478.89,272.417Z" transform="translate(-398.9 -145.031)" fill="#173d7a"/>
          <path id="Path_105" data-name="Path 105" d="M486.6,276.867l11.787-6.8c.947-.548.829-1.5-.264-2.133l-11.679-6.743a4.111,4.111,0,0,0-3.694-.153L470.96,267.84c-.947.546-.827,1.5.264,2.13l11.681,6.743A4.091,4.091,0,0,0,486.6,276.867Z" transform="translate(-424.812 -138.971)" fill="#173d7a"/>
          <path id="Path_106" data-name="Path 106" d="M494.306,281.317l11.788-6.8c.945-.548.827-1.5-.267-2.133l-11.679-6.743a4.106,4.106,0,0,0-3.692-.154l-11.79,6.807c-.945.546-.827,1.5.267,2.13l11.679,6.743A4.1,4.1,0,0,0,494.306,281.317Z" transform="translate(-450.723 -132.911)" fill="#173d7a"/>
          <path id="Path_107" data-name="Path 107" d="M378.868,253.9l34.716-20.042c.947-.548.829-1.5-.264-2.133l-11.679-6.743a4.1,4.1,0,0,0-3.694-.153l-34.715,20.044c-.947.546-.827,1.5.264,2.13l11.681,6.743A4.091,4.091,0,0,0,378.868,253.9Z" transform="translate(-85.58 -188.275)" fill="#173d7a"/>
          <path id="Path_108" data-name="Path 108" d="M473.559,308.568l34.718-20.042c.945-.548.826-1.5-.267-2.133l-11.679-6.743a4.106,4.106,0,0,0-3.691-.153l-34.718,20.044c-.945.546-.827,1.5.267,2.13l11.679,6.745A4.1,4.1,0,0,0,473.559,308.568Z" transform="translate(-403.911 -113.827)" fill="#173d7a"/>
          <path id="Path_109" data-name="Path 109" d="M454.679,293.714l11.788-6.807c.947-.546.827-1.5-.264-2.133l-13.915-8.032a4.106,4.106,0,0,0-3.691-.153L436.807,283.4c-.947.546-.829,1.5.265,2.133l13.913,8.032A4.111,4.111,0,0,0,454.679,293.714Z" transform="translate(-312.229 -117.787)" fill="#173d7a"/>
          <path id="Path_110" data-name="Path 110" d="M395.714,263.749l18.852-10.883c.947-.548.827-1.5-.264-2.133L400.385,242.7a4.091,4.091,0,0,0-3.691-.154L377.842,253.43c-.947.548-.829,1.5.264,2.133L392.02,263.6A4.111,4.111,0,0,0,395.714,263.749Z" transform="translate(-121.067 -164.147)" fill="#173d7a"/>
          <path id="Path_111" data-name="Path 111" d="M444.259,291.778l18.854-10.885c.945-.546.827-1.5-.267-2.13l-13.913-8.035a4.1,4.1,0,0,0-3.691-.151l-18.854,10.883c-.945.546-.827,1.5.267,2.133l13.913,8.032A4.106,4.106,0,0,0,444.259,291.778Z" transform="translate(-284.272 -125.978)" fill="#173d7a"/>
          <path id="Path_112" data-name="Path 112" d="M406.834,270.17l18.851-10.885c.947-.546.829-1.5-.264-2.133l-13.913-8.032a4.111,4.111,0,0,0-3.694-.154l-18.852,10.885c-.947.546-.827,1.5.265,2.133l13.915,8.032A4.106,4.106,0,0,0,406.834,270.17Z" transform="translate(-158.452 -155.403)" fill="#173d7a"/>
          <path id="Path_113" data-name="Path 113" d="M471.374,248.786l-81.963,47.32a1.121,1.121,0,0,0,0,2.126l14.189,8.193a4.078,4.078,0,0,0,3.682,0L489.245,259.1Z" transform="translate(-222.14 -155.148)" fill="#173d7a"/>
          <path id="Path_114" data-name="Path 114" d="M472.62,291.871l-13.131,7.581c-.775.449-.678,1.23.217,1.748l5.692,3.285a3.363,3.363,0,0,0,3.028.125l13.129-7.581c.777-.446.68-1.228-.217-1.745L475.646,292A3.359,3.359,0,0,0,472.62,291.871Z" transform="translate(-381.048 -96.889)" fill="#173d7a"/>
          <path id="Path_115" data-name="Path 115" d="M464.849,287.383l-13.131,7.581c-.775.449-.678,1.23.217,1.748L457.627,300a3.358,3.358,0,0,0,3.025.125l13.131-7.579c.775-.449.678-1.23-.217-1.748l-5.692-3.288A3.366,3.366,0,0,0,464.849,287.383Z" transform="translate(-354.921 -102.998)" fill="#173d7a"/>
          <path id="Path_116" data-name="Path 116" d="M457.14,282.934l-13.129,7.581c-.777.449-.68,1.23.217,1.748l5.692,3.285a3.359,3.359,0,0,0,3.025.125l13.131-7.581c.775-.446.678-1.228-.217-1.745l-5.692-3.288A3.363,3.363,0,0,0,457.14,282.934Z" transform="translate(-329.01 -109.059)" fill="#173d7a"/>
          <path id="Path_117" data-name="Path 117" d="M469.1,284.927l-13.129,7.581c-.777.446-.68,1.228.217,1.745l5.692,3.288a3.358,3.358,0,0,0,3.025.125l13.131-7.581c.775-.449.678-1.23-.217-1.748l-5.692-3.285A3.363,3.363,0,0,0,469.1,284.927Z" transform="translate(-369.231 -106.345)" fill="#173d7a"/>
        </g>
      </g>
      <g id="Group_24" data-name="Group 24" transform="translate(47.301 163.544)">
        <g id="Group_23" data-name="Group 23">
          <path id="Path_118" data-name="Path 118" d="M463.991,181.991l11.273-6.509a4.659,4.659,0,0,0,1.937-3.637h0c.021-1.405-.808-2.055-1.854-1.45L464.074,176.9a4.658,4.658,0,0,0-1.937,3.637h0C462.116,181.946,462.945,182.6,463.991,181.991Z" transform="translate(-384.577 -154.663)" fill="#d4ecff"/>
          <path id="Path_119" data-name="Path 119" d="M473.1,190.336l16.624-9.6a4.656,4.656,0,0,0,1.934-3.637h0c.024-1.4-.808-2.052-1.852-1.45l-16.624,9.6a4.658,4.658,0,0,0-1.937,3.637h0C471.222,190.291,472.051,190.941,473.1,190.336Z" transform="translate(-420.538 -147.504)" fill="#d4ecff"/>
          <path id="Path_120" data-name="Path 120" d="M461.626,207.447l11.275-6.509a4.663,4.663,0,0,0,1.934-3.637h0c.024-1.405-.808-2.055-1.854-1.45l-11.273,6.509A4.658,4.658,0,0,0,459.772,206h0C459.751,207.4,460.58,208.051,461.626,207.447Z" transform="translate(-376.626 -119.998)" fill="#d4ecff"/>
          <path id="Path_121" data-name="Path 121" d="M469.5,215.078l16.624-9.6a4.659,4.659,0,0,0,1.934-3.637h0c.024-1.4-.808-2.052-1.854-1.448l-16.622,9.6a4.662,4.662,0,0,0-1.937,3.637h0C467.622,215.034,468.451,215.683,469.5,215.078Z" transform="translate(-408.436 -113.809)" fill="#d4ecff"/>
          <path id="Path_122" data-name="Path 122" d="M452.691,177.494l7.043-4.067a4.655,4.655,0,0,0,1.937-3.637h0c.021-1.4-.808-2.052-1.854-1.448l-7.043,4.065a4.65,4.65,0,0,0-1.934,3.637h0C450.816,177.449,451.645,178.1,452.691,177.494Z" transform="translate(-342.363 -157.458)" fill="#d4ecff"/>
          <path id="Path_123" data-name="Path 123" d="M456.748,192.663l21.518-12.425A4.649,4.649,0,0,0,480.2,176.6h0c.024-1.4-.805-2.052-1.852-1.448l-21.518,12.423a4.659,4.659,0,0,0-1.937,3.637h0C454.873,192.619,455.7,193.266,456.748,192.663Z" transform="translate(-370.47 -148.183)" fill="#d4ecff"/>
          <path id="Path_124" data-name="Path 124" d="M456.894,193.331l7.043-4.067a4.649,4.649,0,0,0,1.934-3.637h0c.024-1.4-.805-2.052-1.852-1.45l-7.043,4.067a4.658,4.658,0,0,0-1.937,3.637h0C455.019,193.286,455.848,193.935,456.894,193.331Z" transform="translate(-356.486 -135.893)" fill="#d4ecff"/>
          <path id="Path_125" data-name="Path 125" d="M472.089,226.781,490.9,215.919a4.646,4.646,0,0,0,1.934-3.637h0c.024-1.4-.805-2.052-1.852-1.45l-18.811,10.862a4.65,4.65,0,0,0-1.934,3.637h0C470.214,226.736,471.043,227.385,472.089,226.781Z" transform="translate(-419.341 -99.596)" fill="#d4ecff"/>
          <path id="Path_126" data-name="Path 126" d="M457.038,200.9l4.523-2.61a4.663,4.663,0,0,0,1.934-3.637h0c.024-1.4-.808-2.052-1.854-1.45l-4.52,2.612a4.652,4.652,0,0,0-1.934,3.635h0C455.163,200.854,455.992,201.5,457.038,200.9Z" transform="translate(-354.454 -123.603)" fill="#d4ecff"/>
          <path id="Path_127" data-name="Path 127" d="M457.184,210.557l5.614-3.243a4.659,4.659,0,0,0,1.937-3.637h0c.021-1.4-.808-2.052-1.854-1.45l-5.614,3.243a4.649,4.649,0,0,0-1.934,3.637h0C455.309,210.509,456.138,211.159,457.184,210.557Z" transform="translate(-356.039 -111.314)" fill="#d4ecff"/>
          <path id="Path_128" data-name="Path 128" d="M462.542,218.953l14.8-8.547a4.652,4.652,0,0,0,1.934-3.635h0c.024-1.405-.808-2.055-1.852-1.45l-14.8,8.545a4.657,4.657,0,0,0-1.934,3.637h0C460.667,218.909,461.5,219.556,462.542,218.953Z" transform="translate(-383.238 -107.101)" fill="#d4ecff"/>
          <path id="Path_129" data-name="Path 129" d="M457.258,217.971l10.642-6.143a4.65,4.65,0,0,0,1.934-3.637h0c.024-1.405-.805-2.055-1.852-1.45l-10.642,6.145a4.645,4.645,0,0,0-1.934,3.635h0C455.383,217.926,456.212,218.575,457.258,217.971Z" transform="translate(-361.313 -105.169)" fill="#d4ecff"/>
          <path id="Path_130" data-name="Path 130" d="M484,226.76l6.835-3.946a4.652,4.652,0,0,0,1.934-3.635h0c.024-1.405-.808-2.055-1.852-1.45l-6.835,3.946a4.654,4.654,0,0,0-1.937,3.635h0C482.125,226.715,482.954,227.364,484,226.76Z" transform="translate(-447.402 -90.206)" fill="#d4ecff"/>
          <path id="Path_131" data-name="Path 131" d="M463,203.652l18.811-10.859a4.65,4.65,0,0,0,1.934-3.637h0c.024-1.405-.805-2.055-1.852-1.45l-18.811,10.862a4.645,4.645,0,0,0-1.934,3.635h0C461.127,203.607,461.956,204.257,463,203.652Z" transform="translate(-388.793 -131.09)" fill="#d4ecff"/>
          <path id="Path_132" data-name="Path 132" d="M456.819,203.68,489.6,184.753a4.649,4.649,0,0,0,1.934-3.637h0c.024-1.405-.805-2.055-1.852-1.45L456.9,198.595a4.65,4.65,0,0,0-1.934,3.637h0C454.944,203.635,455.773,204.284,456.819,203.68Z" transform="translate(-381.981 -142.038)" fill="#d4ecff"/>
          <path id="Path_133" data-name="Path 133" d="M456.967,204.637l18.811-10.859a4.656,4.656,0,0,0,1.934-3.637h0c.024-1.405-.808-2.055-1.852-1.45L457.05,199.552a4.654,4.654,0,0,0-1.937,3.635h0C455.092,204.592,455.921,205.242,456.967,204.637Z" transform="translate(-368.5 -129.748)" fill="#d4ecff"/>
          <path id="Path_134" data-name="Path 134" d="M474.116,203.153l6.835-3.947a4.645,4.645,0,0,0,1.934-3.635h0c.023-1.405-.805-2.055-1.852-1.45l-6.835,3.947a4.654,4.654,0,0,0-1.937,3.635h0C472.241,203.108,473.07,203.757,474.116,203.153Z" transform="translate(-414.174 -122.353)" fill="#d4ecff"/>
          <path id="Path_135" data-name="Path 135" d="M484.468,210.67,524.942,187.3a4.646,4.646,0,0,0,1.934-3.637h0c.024-1.4-.805-2.052-1.852-1.448l-40.473,23.367a4.655,4.655,0,0,0-1.937,3.637h0C482.593,210.625,483.422,211.274,484.468,210.67Z" transform="translate(-482.614 -138.563)" fill="#d4ecff"/>
          <path id="Path_136" data-name="Path 136" d="M457.111,215.856,479.723,202.8a4.662,4.662,0,0,0,1.937-3.637h0c.021-1.405-.808-2.055-1.854-1.45l-22.611,13.056a4.65,4.65,0,0,0-1.934,3.637h0C455.236,215.811,456.065,216.461,457.111,215.856Z" transform="translate(-372.791 -117.459)" fill="#d4ecff"/>
          <path id="Path_137" data-name="Path 137" d="M452.618,178.515l16.624-9.6a4.658,4.658,0,0,0,1.937-3.637h0c.021-1.405-.808-2.055-1.854-1.45l-16.624,9.6a4.657,4.657,0,0,0-1.934,3.637h0C450.743,178.47,451.574,179.117,452.618,178.515Z" transform="translate(-351.7 -163.603)" fill="#d4ecff"/>
          <path id="Path_138" data-name="Path 138" d="M453.352,225.156l19.253-11.114a4.65,4.65,0,0,0,1.934-3.637h0c.024-1.405-.805-2.055-1.852-1.45l-19.253,11.117a4.655,4.655,0,0,0-1.937,3.637h0C451.477,225.111,452.306,225.761,453.352,225.156Z" transform="translate(-356.789 -102.154)" fill="#d4ecff"/>
        </g>
      </g>
    </g>
    <g id="Group_32" data-name="Group 32" transform="translate(39.335 0)">
      <g id="Group_26" data-name="Group 26" transform="translate(88.202)">
        <path id="Path_139" data-name="Path 139" d="M424.842,261.854l-99.17-57.74c-19.645-11.346-38.173-13.138-52.171-5.064s-21.7,25.025-21.7,47.708v7.267c.7.475,1.436.938,2.187,1.4v-8.663c0-21.868,7.321-38.14,20.609-45.813s31.043-5.874,49.984,5.061l99.17,57.743a1.094,1.094,0,0,0,1.094-1.894Z" transform="translate(113.012 161.806)" fill="#d4ecff"/>
        <path id="Path_140" data-name="Path 140" d="M503.756,398.263V174.777c0-44.732-31.52-99.326-70.262-121.692-18.972-10.954-36.87-12.69-50.391-4.884s-20.965,24.168-20.965,46.078v15.583l2.187,2.187V94.278c0-21.1,7.057-36.787,19.872-44.184s29.933-5.663,48.2,4.882c38.14,22.021,69.169,75.763,69.169,119.8V398.263c0,37.08,21.818,80.966,51.4,107.373V502.7C524.556,476.588,503.756,434.181,503.756,398.263Z" transform="translate(-275.17 -43.389)" fill="#d4ecff"/>
        <path id="Path_141" data-name="Path 141" d="M528.982,87.287h0c-3.59-3.41-20.335-18.181-44.769-21.917C456.539,61.14,445.1,93.5,445.1,93.5s-3.2,16.809-3.087,26.759.827,46.078.827,46.078L530.566,115.8v-.012a1.086,1.086,0,0,0,.6-.964V89.179C530.439,88.449,529.711,88.017,528.982,87.287Z" transform="translate(-442.014 -13.975)" fill="#173d7a"/>
      </g>
      <g id="Group_30" data-name="Group 30" transform="translate(0 0.408)">
        <g id="Group_28" data-name="Group 28" transform="translate(21.997)">
          <path id="Path_142" data-name="Path 142" d="M453.036,95.9l83.148-47.934-.326,1.2c12.815-8.278,32.184-9.171,58.09,9.827,51.458,37.736,57.639,90.271,60.263,100.115s1.545,72.213,1.545,72.213.172,150.428.342,167.924,5.264,37.125,15.094,58.319,35.077,46.912,35.077,46.912v30.618c-4.029,33.1-18.1,40.823-39.021,42.712-16.889,1.521-34.883-10.673-49.262-23.962.529.553.871.9.871.9v30.618c-4.031,33.1-18.1,40.821-39.023,42.71s-43.556-17.281-58.891-33.506-28.266-41-35.448-63.349-4.8-51.231-4.8-51.231-.172-164.435-.343-196.853-1.2-26.759-11.835-59.349-38.825-55.4-38.825-55.4l-67.643-20.143Z" transform="translate(-362.047 -43.561)" fill="#b0c9fe"/>
          <path id="Path_143" data-name="Path 143" d="M324.372,390.533c1.141-1.549,15.956-11.485,19.73-28.979,2.1-9.735,1.887-24.529,1.887-24.529s-.061-8.228-.26-15.708c-.165-.146-.335-.281-.5-.428v-2.933c.137.125.276.236.411.359-.057-1.689-.12-3.273-.194-4.617-.43-7.777,5.316-24.357,5.316-24.357s8.148-22.212,32.42-23.07c21.549-.763,44.231,14.74,49.056,18.233v-10.03c.319.217.666.425,1,.638-.026-1.344-.057-2.718-.092-4.067-.165-.144-.335-.279-.5-.425v-2.933c.135.123.276.236.411.359-.057-1.689-.121-3.273-.2-4.617-.428-7.777,5.319-24.357,5.319-24.357s8.148-22.215,32.418-23.072c21.551-.761,44.231,14.742,49.056,18.235V224.2c.7.475,1.436.938,2.187,1.4v17.56c0,21.277-7.088,37.266-19.959,45.206l-.052.059-.449.26c-.12.071-.234.154-.354.224-.078.045-.163.073-.241.118l-89,51.236c.021-.031.08-.083.113-.118Z" transform="translate(-88.635 191.22)" fill="#b0c9fe"/>
          <g id="Group_27" data-name="Group 27" transform="translate(274.259 356.41)">
            <path id="Path_144" data-name="Path 144" d="M342,248.779s.668-.342,1.842-.82c.361-.175.711-.378,1.077-.543l84.494-48.907a45.349,45.349,0,0,1,34.3-1.285c18.776,6.873,117.164,65.9,117.164,65.9l-87.9,50.639-.017-.009a.978.978,0,0,1-.234.064L405.571,364.03s-49.311-30.549-83.427-50.258l-2.187-1.261c-13.949-8.021-25.025-14.01-28.5-14.931-21.034-5.574-35.667,1.219-39.479,3.309Z" transform="translate(-250.958 -194.47)" fill="#b0c9fe"/>
            <path id="Path_145" data-name="Path 145" d="M392.257,239.529l-1.018.59S391.612,239.883,392.257,239.529Z" transform="translate(-391.239 -133.11)" fill="#b0c9fe"/>
          </g>
        </g>
        <path id="Path_146" data-name="Path 146" d="M565.994,108.572h0c-3.59-3.41-20.335-18.181-44.77-21.917-27.673-4.23-39.108,28.131-39.108,28.131s-3.2,16.809-3.087,26.759.827,46.078.827,46.078l87.723-50.535v-.012a1.083,1.083,0,0,0,.6-.964V110.464C567.453,109.734,566.724,109.3,565.994,108.572Z" transform="translate(-478.238 14.602)" fill="#173d7a"/>
        <g id="Group_29" data-name="Group 29" transform="translate(0 100.414)">
          <path id="Path_147" data-name="Path 147" d="M566.608,571.394c-9.671,0-20.38-3.228-31.456-9.627C496.688,539.563,465.4,485.362,465.4,440.954V217.468c0-44.037-31.029-97.779-69.171-119.8-18.271-10.543-35.386-12.281-48.2-4.884s-19.872,23.093-19.872,44.189V186.93a1.094,1.094,0,0,1-2.187,0V136.97c0-21.91,7.444-38.275,20.965-46.08s31.416-6.07,50.388,4.884c38.745,22.368,70.265,76.96,70.265,121.695V440.954c0,43.714,30.8,97.061,68.659,118.922,18.129,10.465,35.122,12.191,47.842,4.846S603.81,541.8,603.81,520.867V494.644c0-22.685,7.706-39.628,21.7-47.708s32.522-6.282,52.169,5.061l99.17,57.743a1.092,1.092,0,1,1-1.093,1.892l-99.17-57.74c-18.939-10.935-36.692-12.735-49.982-5.061S606,472.774,606,494.644v26.223c0,21.752-7.392,38-20.817,45.75A36.683,36.683,0,0,1,566.608,571.394Z" transform="translate(-325.968 -86.078)" fill="#396caa"/>
        </g>
      </g>
      <path id="Path_148" data-name="Path 148" d="M413.253,173.767l14.659-8.465a6.059,6.059,0,0,0,2.518-4.731h0c.028-1.826-1.051-2.669-2.411-1.885l-14.659,8.465a6.049,6.049,0,0,0-2.515,4.728h0C410.814,173.708,411.893,174.551,413.253,173.767Z" transform="translate(-179.458 113.221)" fill="#5793ce"/>
      <path id="Path_149" data-name="Path 149" d="M423.489,183.693l21.617-12.482a6.049,6.049,0,0,0,2.515-4.728h0c.031-1.828-1.049-2.671-2.409-1.887L423.6,177.078a6.045,6.045,0,0,0-2.515,4.728h0C421.05,183.634,422.129,184.477,423.489,183.693Z" transform="translate(-220.824 121.268)" fill="#5793ce"/>
      <path id="Path_150" data-name="Path 150" d="M406.91,154.543l27.982-16.157a6.045,6.045,0,0,0,2.515-4.728h0c.031-1.826-1.049-2.671-2.409-1.885l-27.982,16.154a6.05,6.05,0,0,0-2.515,4.731h0C404.471,154.484,405.55,155.327,406.91,154.543Z" transform="translate(-171.455 76.57)" fill="#5793ce"/>
      <path id="Path_151" data-name="Path 151" d="M407.1,155.411l9.159-5.288a6.062,6.062,0,0,0,2.515-4.728h0c.031-1.828-1.049-2.671-2.409-1.887l-9.159,5.288a6.05,6.05,0,0,0-2.515,4.731h0C404.661,155.352,405.74,156.2,407.1,155.411Z" transform="translate(-153.27 92.551)" fill="#5793ce"/>
      <path id="Path_152" data-name="Path 152" d="M407.29,165.253l5.878-3.394a6.059,6.059,0,0,0,2.518-4.731h0c.028-1.826-1.049-2.669-2.409-1.885l-5.878,3.394a6.059,6.059,0,0,0-2.518,4.731h0C404.853,165.194,405.93,166.037,407.29,165.253Z" transform="translate(-150.631 108.532)" fill="#5793ce"/>
      <path id="Path_153" data-name="Path 153" d="M415.045,168.833l24.461-14.123a6.055,6.055,0,0,0,2.518-4.728h0c.028-1.826-1.049-2.671-2.409-1.885l-24.461,14.121a6.059,6.059,0,0,0-2.518,4.731h0C412.608,168.774,413.685,169.617,415.045,168.833Z" transform="translate(-195.283 98.798)" fill="#5793ce"/>
      <path id="Path_154" data-name="Path 154" d="M407.005,168.869l42.634-24.614a6.045,6.045,0,0,0,2.515-4.728h0c.031-1.828-1.049-2.671-2.409-1.885l-42.632,24.614a6.054,6.054,0,0,0-2.518,4.728h0C404.568,168.81,405.645,169.655,407.005,168.869Z" transform="translate(-186.426 84.56)" fill="#5793ce"/>
      <path id="Path_155" data-name="Path 155" d="M407.2,170.115l24.461-14.123a6.058,6.058,0,0,0,2.518-4.728h0c.028-1.828-1.049-2.671-2.409-1.887L407.3,163.5a6.058,6.058,0,0,0-2.518,4.728h0C404.758,170.056,405.835,170.9,407.2,170.115Z" transform="translate(-168.894 100.542)" fill="#5793ce"/>
      <path id="Path_156" data-name="Path 156" d="M429.5,168.183l8.887-5.13a6.05,6.05,0,0,0,2.515-4.731h0c.031-1.826-1.049-2.669-2.409-1.885L429.6,161.57a6.045,6.045,0,0,0-2.515,4.728h0C427.056,168.126,428.135,168.969,429.5,168.183Z" transform="translate(-228.285 110.158)" fill="#5793ce"/>
      <g id="Group_31" data-name="Group 31" transform="translate(189.2 173.273)">
        <path id="Path_157" data-name="Path 157" d="M416.329,140.665l14.659-8.465a6.059,6.059,0,0,0,2.518-4.731h0c.028-1.826-1.049-2.669-2.409-1.885l-14.662,8.465a6.05,6.05,0,0,0-2.515,4.731h0C413.89,140.606,414.969,141.449,416.329,140.665Z" transform="translate(-378.999 -105.13)" fill="#5793ce"/>
        <path id="Path_158" data-name="Path 158" d="M428.17,151.518l21.617-12.482a6.046,6.046,0,0,0,2.515-4.728h0c.031-1.828-1.049-2.671-2.409-1.885L428.277,144.9a6.049,6.049,0,0,0-2.515,4.728h0C425.731,151.459,426.81,152.3,428.17,151.518Z" transform="translate(-425.761 -95.82)" fill="#5793ce"/>
        <path id="Path_159" data-name="Path 159" d="M413.253,173.767l14.659-8.465a6.059,6.059,0,0,0,2.518-4.731h0c.028-1.826-1.051-2.669-2.411-1.885l-14.659,8.465a6.049,6.049,0,0,0-2.515,4.728h0C410.814,173.708,411.893,174.551,413.253,173.767Z" transform="translate(-368.658 -60.052)" fill="#5793ce"/>
        <path id="Path_160" data-name="Path 160" d="M423.489,183.693l21.617-12.482a6.049,6.049,0,0,0,2.515-4.728h0c.031-1.828-1.049-2.671-2.409-1.887L423.6,177.078a6.045,6.045,0,0,0-2.515,4.728h0C421.05,183.634,422.129,184.477,423.489,183.693Z" transform="translate(-410.024 -52.006)" fill="#5793ce"/>
        <path id="Path_161" data-name="Path 161" d="M401.638,134.819l9.159-5.288a6.063,6.063,0,0,0,2.515-4.731h0c.031-1.826-1.049-2.669-2.409-1.885l-9.159,5.288a6.049,6.049,0,0,0-2.515,4.728h0C399.2,134.76,400.278,135.6,401.638,134.819Z" transform="translate(-324.108 -108.764)" fill="#5793ce"/>
        <path id="Path_162" data-name="Path 162" d="M406.91,154.543l27.982-16.157a6.045,6.045,0,0,0,2.515-4.728h0c.031-1.826-1.049-2.671-2.409-1.885l-27.982,16.154a6.05,6.05,0,0,0-2.515,4.731h0C404.471,154.484,405.55,155.327,406.91,154.543Z" transform="translate(-360.655 -96.704)" fill="#5793ce"/>
        <path id="Path_163" data-name="Path 163" d="M407.1,155.411l9.159-5.288a6.062,6.062,0,0,0,2.515-4.728h0c.031-1.828-1.049-2.671-2.409-1.887l-9.159,5.288a6.05,6.05,0,0,0-2.515,4.731h0C404.661,155.352,405.74,156.2,407.1,155.411Z" transform="translate(-342.47 -80.723)" fill="#5793ce"/>
        <path id="Path_164" data-name="Path 164" d="M426.861,198.907l24.461-14.123a6.058,6.058,0,0,0,2.518-4.728h0c.028-1.828-1.049-2.671-2.409-1.885L426.97,192.292a6.059,6.059,0,0,0-2.518,4.731h0C424.424,198.848,425.5,199.691,426.861,198.907Z" transform="translate(-424.206 -33.522)" fill="#5793ce"/>
        <path id="Path_165" data-name="Path 165" d="M407.29,165.253l5.878-3.394a6.059,6.059,0,0,0,2.518-4.731h0c.028-1.826-1.049-2.669-2.409-1.885l-5.878,3.394a6.059,6.059,0,0,0-2.518,4.731h0C404.853,165.194,405.93,166.037,407.29,165.253Z" transform="translate(-339.831 -64.741)" fill="#5793ce"/>
        <path id="Path_166" data-name="Path 166" d="M407.48,177.809l7.3-4.216a6.054,6.054,0,0,0,2.518-4.728h0c.028-1.826-1.051-2.671-2.409-1.885l-7.3,4.216a6.048,6.048,0,0,0-2.515,4.728h0C405.041,177.75,406.12,178.6,407.48,177.809Z" transform="translate(-341.891 -48.76)" fill="#5793ce"/>
        <path id="Path_167" data-name="Path 167" d="M414.447,188.729l19.246-11.112a6.059,6.059,0,0,0,2.518-4.731h0c.028-1.826-1.049-2.669-2.409-1.885l-19.248,11.112a6.05,6.05,0,0,0-2.515,4.731h0C412.008,188.67,413.087,189.513,414.447,188.729Z" transform="translate(-377.258 -43.282)" fill="#5793ce"/>
        <path id="Path_168" data-name="Path 168" d="M407.578,187.452l13.838-7.99a6.054,6.054,0,0,0,2.518-4.728h0c.028-1.828-1.051-2.671-2.411-1.885l-13.838,7.99a6.054,6.054,0,0,0-2.518,4.728h0C405.138,187.393,406.217,188.238,407.578,187.452Z" transform="translate(-348.75 -40.769)" fill="#5793ce"/>
        <path id="Path_169" data-name="Path 169" d="M415.045,168.833l24.461-14.123a6.055,6.055,0,0,0,2.518-4.728h0c.028-1.826-1.049-2.671-2.409-1.885l-24.461,14.121a6.059,6.059,0,0,0-2.518,4.731h0C412.608,168.774,413.685,169.617,415.045,168.833Z" transform="translate(-384.483 -74.475)" fill="#5793ce"/>
        <path id="Path_170" data-name="Path 170" d="M407.005,168.869l42.634-24.614a6.045,6.045,0,0,0,2.515-4.728h0c.031-1.828-1.049-2.671-2.409-1.885l-42.632,24.614a6.054,6.054,0,0,0-2.518,4.728h0C404.568,168.81,405.645,169.655,407.005,168.869Z" transform="translate(-375.626 -88.713)" fill="#5793ce"/>
        <path id="Path_171" data-name="Path 171" d="M407.2,170.115l24.461-14.123a6.058,6.058,0,0,0,2.518-4.728h0c.028-1.828-1.049-2.671-2.409-1.887L407.3,163.5a6.058,6.058,0,0,0-2.518,4.728h0C404.758,170.056,405.835,170.9,407.2,170.115Z" transform="translate(-358.094 -72.732)" fill="#5793ce"/>
        <path id="Path_172" data-name="Path 172" d="M429.5,168.183l8.887-5.13a6.05,6.05,0,0,0,2.515-4.731h0c.031-1.826-1.049-2.669-2.409-1.885L429.6,161.57a6.045,6.045,0,0,0-2.515,4.728h0C427.056,168.126,428.135,168.969,429.5,168.183Z" transform="translate(-417.485 -63.115)" fill="#5793ce"/>
        <path id="Path_173" data-name="Path 173" d="M407.385,184.7l29.4-16.976A6.059,6.059,0,0,0,439.307,163h0c.028-1.826-1.049-2.671-2.409-1.885l-29.4,16.976a6.058,6.058,0,0,0-2.518,4.728h0C404.948,184.645,406.025,185.488,407.385,184.7Z" transform="translate(-363.676 -56.751)" fill="#5793ce"/>
        <path id="Path_174" data-name="Path 174" d="M401.543,136.143l21.617-12.48a6.05,6.05,0,0,0,2.515-4.731h0c.031-1.826-1.049-2.669-2.409-1.885L401.65,129.53a6.046,6.046,0,0,0-2.515,4.728h0C399.1,136.086,400.183,136.929,401.543,136.143Z" transform="translate(-336.247 -116.755)" fill="#5793ce"/>
        <path id="Path_175" data-name="Path 175" d="M402.494,196.8l25.037-14.456a6.045,6.045,0,0,0,2.515-4.728h0c.031-1.826-1.049-2.671-2.409-1.885L402.6,190.182a6.05,6.05,0,0,0-2.515,4.731h0C400.055,196.738,401.134,197.581,402.494,196.8Z" transform="translate(-342.864 -36.849)" fill="#5793ce"/>
      </g>
      <path id="Path_176" data-name="Path 176" d="M411.794,229.451l14.659-8.465a6.054,6.054,0,0,0,2.518-4.728h0c.028-1.828-1.051-2.671-2.409-1.887L411.9,222.835a6.05,6.05,0,0,0-2.515,4.731h0C409.355,229.392,410.434,230.235,411.794,229.451Z" transform="translate(-174.553 189.049)" fill="#5793ce"/>
      <path id="Path_177" data-name="Path 177" d="M422.029,239.376l21.617-12.482a6.054,6.054,0,0,0,2.518-4.728h0c.028-1.826-1.051-2.671-2.411-1.885l-21.617,12.48a6.064,6.064,0,0,0-2.515,4.731h0C419.59,239.317,420.669,240.163,422.029,239.376Z" transform="translate(-215.919 197.097)" fill="#5793ce"/>
      <path id="Path_178" data-name="Path 178" d="M405.451,210.227l27.982-16.154a6.05,6.05,0,0,0,2.515-4.731h0c.031-1.826-1.049-2.669-2.409-1.885l-27.982,16.157a6.045,6.045,0,0,0-2.515,4.728h0C403.012,210.168,404.091,211.013,405.451,210.227Z" transform="translate(-166.55 152.399)" fill="#5793ce"/>
      <path id="Path_179" data-name="Path 179" d="M405.641,211.094l9.159-5.288a6.045,6.045,0,0,0,2.515-4.728h0c.031-1.826-1.049-2.671-2.409-1.885l-9.159,5.288a6.045,6.045,0,0,0-2.515,4.728h0C403.2,211.035,404.281,211.881,405.641,211.094Z" transform="translate(-148.365 168.38)" fill="#5793ce"/>
      <path id="Path_180" data-name="Path 180" d="M405.831,220.936l5.881-3.394a6.059,6.059,0,0,0,2.515-4.728h0c.031-1.828-1.049-2.671-2.409-1.885l-5.878,3.394a6.054,6.054,0,0,0-2.518,4.728h0C403.394,220.878,404.473,221.723,405.831,220.936Z" transform="translate(-145.726 184.361)" fill="#5793ce"/>
      <path id="Path_181" data-name="Path 181" d="M413.586,224.516,438.049,210.4a6.05,6.05,0,0,0,2.515-4.731h0c.031-1.826-1.049-2.669-2.409-1.885L413.695,217.9a6.054,6.054,0,0,0-2.518,4.728h0C411.149,224.46,412.228,225.3,413.586,224.516Z" transform="translate(-190.379 174.627)" fill="#5793ce"/>
      <path id="Path_182" data-name="Path 182" d="M405.549,224.555l42.632-24.614a6.05,6.05,0,0,0,2.515-4.731h0c.031-1.826-1.049-2.669-2.409-1.885l-42.632,24.614a6.058,6.058,0,0,0-2.518,4.728h0C403.109,224.5,404.188,225.339,405.549,224.555Z" transform="translate(-181.521 160.39)" fill="#5793ce"/>
      <path id="Path_183" data-name="Path 183" d="M405.736,225.8,430.2,211.675a6.045,6.045,0,0,0,2.515-4.728h0c.031-1.828-1.049-2.671-2.409-1.885l-24.461,14.123a6.054,6.054,0,0,0-2.518,4.728h0C403.3,225.739,404.378,226.582,405.736,225.8Z" transform="translate(-163.989 176.37)" fill="#5793ce"/>
      <path id="Path_184" data-name="Path 184" d="M428.035,223.869l8.887-5.132a6.054,6.054,0,0,0,2.518-4.728h0c.028-1.826-1.051-2.671-2.411-1.885l-8.887,5.13a6.05,6.05,0,0,0-2.515,4.731h0C425.6,223.81,426.675,224.653,428.035,223.869Z" transform="translate(-223.379 185.987)" fill="#5793ce"/>
    </g>
    <g id="Group_38" data-name="Group 38" transform="translate(0 511.664)">
      <path id="Path_185" data-name="Path 185" d="M516.342,359.239l-27.153-15.677-27.152,15.677,27.152,15.676Z" transform="translate(-346.94 -146.287)" fill="#d4ecff"/>
      <path id="Path_186" data-name="Path 186" d="M540.745,344.961l-27.153-15.676L486.44,344.961l27.152,15.676Z" transform="translate(-428.979 -165.73)" fill="#d4ecff"/>
      <path id="Path_187" data-name="Path 187" d="M565.076,331.024l-27.153-15.676-27.152,15.676L537.923,346.7Z" transform="translate(-510.771 -184.71)" fill="#d4ecff"/>
      <g id="Group_37" data-name="Group 37" transform="translate(0)">
        <g id="Group_36" data-name="Group 36" transform="translate(0)">
          <g id="Group_33" data-name="Group 33" transform="translate(57.461 79.947)">
            <path id="Path_188" data-name="Path 188" d="M486.441,393.168V309.56l27.153-15.676v83.608Z" transform="translate(-459.288 -293.884)" fill="#051367"/>
            <path id="Path_189" data-name="Path 189" d="M525.09,309.56l-27.153-15.676v83.608l27.153,15.676Z" transform="translate(-497.937 -293.884)" fill="#051367"/>
            <path id="Path_190" data-name="Path 190" d="M486.441,393.168V309.56l27.153-15.676v83.608Z" transform="translate(-459.288 -293.884)" fill="#051367"/>
          </g>
          <g id="Group_34" data-name="Group 34" transform="translate(115.097 134.57)">
            <path id="Path_191" data-name="Path 191" d="M462.037,386.356V339.326L489.19,323.65v47.029Z" transform="translate(-434.884 -307.973)" fill="#051367"/>
            <path id="Path_192" data-name="Path 192" d="M500.686,339.326,473.534,323.65v47.029l27.152,15.677Z" transform="translate(-473.534 -307.973)" fill="#051367"/>
            <path id="Path_193" data-name="Path 193" d="M516.342,332.689l-27.153-15.677-27.152,15.677,27.152,15.676Z" transform="translate(-462.037 -317.012)" fill="#051367"/>
          </g>
          <g id="Group_35" data-name="Group 35">
            <path id="Path_194" data-name="Path 194" d="M510.771,397.309V282.348l27.152-15.676V381.632Z" transform="translate(-483.618 -250.995)" fill="#051367"/>
            <path id="Path_195" data-name="Path 195" d="M549.42,282.348l-27.153-15.676V381.632l27.153,15.677Z" transform="translate(-522.267 -250.995)" fill="#051367"/>
            <path id="Path_196" data-name="Path 196" d="M565.075,275.71l-27.152-15.676L510.771,275.71l27.153,15.676Z" transform="translate(-510.771 -260.034)" fill="#051367"/>
          </g>
        </g>
        <path id="Path_197" data-name="Path 197" d="M540.746,302.923l-27.153-15.677L486.44,302.923,513.593,318.6Z" transform="translate(-428.979 -222.976)" fill="#d4ecff"/>
      </g>
    </g>
    <g id="Group_44" data-name="Group 44" transform="translate(459.828 219.05)">
      <g id="Group_43" data-name="Group 43" transform="translate(0)">
        <g id="Group_40" data-name="Group 40">
          <path id="Path_198" data-name="Path 198" d="M294.021,284.589s8.382-4.228,13.531,2.067,12.506,21.152,12.732,31.192-7.945,9.362-12.8,6.986-19.05-22.963-19.91-27,1.013-9.487,2.378-10.555S294.021,284.589,294.021,284.589Z" transform="translate(-198.155 64.126)" fill="#5793ce"/>
          <path id="Path_199" data-name="Path 199" d="M292.923,284.089l-.387,8.684a4.921,4.921,0,0,0,2.454,4.516,9.65,9.65,0,0,0,6.464,1.006c6.315-1.015,6.877-2.818,7.329-11.5S292.923,284.089,292.923,284.089Z" transform="translate(-198.885 62.607)" fill="#d4ecff"/>
          <g id="Group_39" data-name="Group 39" transform="translate(49.753 154.058)">
            <path id="Path_200" data-name="Path 200" d="M281.031,277.52s8.382-4.228,13.528,2.067,12.505,21.152,12.735,31.192-7.945,9.36-12.8,6.984-19.05-22.961-19.91-26.995,1.013-9.49,2.378-10.555S281.031,277.52,281.031,277.52Z" transform="translate(-204.235 -99.558)" fill="#5793ce"/>
            <path id="Path_201" data-name="Path 201" d="M279.935,277.019l-.39,8.684A4.927,4.927,0,0,0,282,290.221a9.671,9.671,0,0,0,6.466,1.006c6.313-1.016,6.877-2.82,7.329-11.5S279.935,277.019,279.935,277.019Z" transform="translate(-204.968 -101.078)" fill="#d4ecff"/>
            <path id="Path_202" data-name="Path 202" d="M274.124,217.887c2.482-40.362,43.714,5.938,43.714,5.938l28.218,27.661L371.468,279.4a25.043,25.043,0,0,1,6.311,20.122L367.5,377.8a7.694,7.694,0,0,1-7.714,6.686,26.348,26.348,0,0,1-3.81-.333c-9.171-1.429-8.493-10.148-8.493-10.148l1.88-73.21L296,268.622S271.644,258.249,274.124,217.887Z" transform="translate(-273.946 -201.368)" fill="#173d7a"/>
          </g>
          <path id="Path_203" data-name="Path 203" d="M287.114,224.4c2.48-40.363,43.711,5.94,43.711,5.94L359.046,258l25.41,27.916a25.045,25.045,0,0,1,6.313,20.122L380.489,384.31A7.694,7.694,0,0,1,372.775,391a26.063,26.063,0,0,1-3.807-.335c-9.171-1.429-8.5-10.146-8.5-10.146l1.88-73.21-53.366-32.172S284.634,264.762,287.114,224.4Z" transform="translate(-267.863 -38.443)" fill="#173d7a"/>
          <path id="Path_204" data-name="Path 204" d="M325.686,162.6c-31.26,12.961-30.632,31.437-30.632,31.437s6.122,67.742,4.031,112.984c-.871,18.913,100.486,20.356,85.371-30.1-17.824-59.493-11.143-107.656-19.487-114.919S333.773,159.251,325.686,162.6Z" transform="translate(-282.043 -106.214)" fill="#5793ce"/>
          <path id="Path_205" data-name="Path 205" d="M311.787,176.29c1.634,6.348,9.95,9.693,18.573,7.473s14.289-9.168,12.652-15.514-9.95-9.693-18.573-7.47S310.152,169.944,311.787,176.29Z" transform="translate(-278.2 -103.518)" fill="#ffc2b0"/>
          <path id="Path_206" data-name="Path 206" d="M325.948,186.794a22.646,22.646,0,0,0,5.649-.727,20.789,20.789,0,0,0,10.959-6.712c2.7-3.309,3.68-7.078,2.768-10.621-1.837-7.137-10.984-10.973-20.394-8.542a20.8,20.8,0,0,0-10.959,6.71c-2.7,3.309-3.68,7.081-2.768,10.621h0C312.668,183.206,318.773,186.794,325.948,186.794Zm4.707-24.352c5.805,0,10.659,2.7,11.776,7.038.668,2.6-.111,5.434-2.192,7.985a17.8,17.8,0,0,1-9.388,5.708c-7.8,2.01-15.326-.86-16.754-6.4h0c-.668-2.6.111-5.432,2.192-7.985a17.833,17.833,0,0,1,9.388-5.708A20.059,20.059,0,0,1,330.655,162.442Z" transform="translate(-279.064 -104.377)" fill="#fff"/>
          <path id="Path_207" data-name="Path 207" d="M330.835,163.008s-.269,1.254.272,11.159c.17,3.115-10.734,6.025-13.554,3.2s-1.691-5.749-2.366-16.348S330.835,163.008,330.835,163.008Z" transform="translate(-274.658 -108.029)" fill="#ffc2b0"/>
          <path id="Path_208" data-name="Path 208" d="M315.166,158.576s2.685,9.827,15.921,13.6l-.2-8.932Z" transform="translate(-274.638 -105.581)" fill="#ea9c92"/>
          <ellipse id="Ellipse_5" data-name="Ellipse 5" cx="24.062" cy="24.062" rx="24.062" ry="24.062" transform="translate(46.719 66.944) rotate(-120.156)" fill="#ffc2b0"/>
          <path id="Path_209" data-name="Path 209" d="M305.332,154.28s13.247,5.675,22.42,5.739,7.154-7.617,7.154-7.617l-27.231-3.935Z" transform="translate(-255.421 -119.346)" fill="#ea9c92"/>
          <path id="Path_210" data-name="Path 210" d="M349.143,172.567s-11.54-4.9-21.664-2.855a10.61,10.61,0,0,0-6.117,3.635,3.608,3.608,0,0,1-1.852,1.339c-1.795.406-4.735-7.04-8.224-7.21s-5.817,2.3-2.957,6.88,1.894,9.709.579,10.444-15.281-9.96-2.964-34.359,43.6-11.259,48.47-6.313c0,0,5.127,4.466,9.3.491C363.71,144.617,368.382,179.623,349.143,172.567Z" transform="translate(-274.077 -136.137)" fill="#051367"/>
          <path id="Path_211" data-name="Path 211" d="M330.545,200.288v18.306a7.456,7.456,0,0,0,2.433,5.51l37.6,34.283-4.275,6.533-49.658-36.014a10.1,10.1,0,0,1-4.112-7.116l-3.356-31.922Z" transform="translate(-299.999 -62.969)" fill="#ffc2b0"/>
          <path id="Path_212" data-name="Path 212" d="M340.628,169.449S329.22,186.6,324.972,231.764c0,0,19.487,6.3,30.547,2.725S340.628,169.449,340.628,169.449Z" transform="translate(-324.972 -90.775)" fill="#5793ce"/>
          <path id="Path_213" data-name="Path 213" d="M323.252,178.634s4.468,23.9,4.721,35.136a7.173,7.173,0,0,1-4.721,6.925h0Z" transform="translate(-290.625 -78.267)" fill="#396caa"/>
        </g>
        <g id="Group_41" data-name="Group 41" transform="translate(42.383 181.75)">
          <path id="Path_214" data-name="Path 214" d="M273.821,247.837l8.311-1.1,53.65-30.974a7.456,7.456,0,0,1,6.71.279l38.017,21.941,5.026-.664v5h0a1.956,1.956,0,0,1-1.155,1.762l-60.8,35.1a7.456,7.456,0,0,1-6.71-.276l-41.4-23.9a2.713,2.713,0,0,1-1.641-2.255h0Z" transform="translate(-273.82 -210.367)" fill="#5793ce"/>
          <path id="Path_215" data-name="Path 215" d="M273.82,221.94l3.812-2.2h41.907l20.658,11.92,5.026-.664v5h0a1.956,1.956,0,0,1-1.155,1.762l-60.8,35.1a6.274,6.274,0,0,1-3.462.65Z" transform="translate(-233.508 -204.042)" fill="#396caa"/>
          <path id="Path_216" data-name="Path 216" d="M273.82,224.8l2.23-.293v5h0a1.956,1.956,0,0,1-1.155,1.762l-1.07.619Z" transform="translate(-164.335 -197.552)" fill="#5793ce"/>
          <path id="Path_217" data-name="Path 217" d="M306.015,247.465a7.78,7.78,0,0,1-5.7-.354V238.6h5.7Z" transform="translate(-256.873 -178.36)" fill="#fff"/>
          <path id="Path_218" data-name="Path 218" d="M323.574,276.913l60.8-35.1c1.719-.992,1.5-2.728-.482-3.873l-41.4-23.894a7.449,7.449,0,0,0-6.71-.279l-60.8,35.1c-1.719.992-1.5,2.728.482,3.873l41.4,23.9A7.456,7.456,0,0,0,323.574,276.913Z" transform="translate(-273.819 -213.093)" fill="#fff"/>
          <path id="Path_219" data-name="Path 219" d="M306.936,264.2l50.556-29.189c1.429-.827,1.249-2.267-.4-3.221L334.9,219.313a6.194,6.194,0,0,0-5.578-.231L278.77,248.268c-1.429.827-1.252,2.27.4,3.221l22.184,12.477A6.214,6.214,0,0,0,306.936,264.2Z" transform="translate(-256.152 -205.697)" fill="#d4ecff"/>
        </g>
        <path id="Path_220" data-name="Path 220" d="M305.239,214.221l.628,4.2a31.007,31.007,0,0,1-.274,10.758l-.746,3.7a5.2,5.2,0,0,1-4.166,4.084h0a2.868,2.868,0,0,1-3.363-2.5l-1-8.968s-2.3,3.007-3.4,3.007,1.24-8.982,3.746-14.064S305.239,214.221,305.239,214.221Z" transform="translate(-196.534 -32.676)" fill="#ffc2b0"/>
        <path id="Path_221" data-name="Path 221" d="M291.366,192.074l6.523,12.914a25.3,25.3,0,0,1,2.669,9.8l2.834,44.167,8.583-.205,3.9-49.6a18.169,18.169,0,0,0-.222-4.584L311.2,179.415Z" transform="translate(-203.27 -77.204)" fill="#ffc2b0"/>
        <g id="Group_42" data-name="Group 42" transform="translate(90.184 155.452)">
          <path id="Path_222" data-name="Path 222" d="M275.736,295.449l5.1-6.655,53.612-31.038a7.457,7.457,0,0,0,3.106-5.956l-.045-43.891,3.082-4.024-2.9-1.679,0,0a1.962,1.962,0,0,0-2.1.12l-60.759,35.178a7.462,7.462,0,0,0-3.106,5.954l.052,47.8a2.707,2.707,0,0,0,1.136,2.548h0Z" transform="translate(-271.723 -201.958)" fill="#173d7a"/>
          <path id="Path_223" data-name="Path 223" d="M311.993,270.279l3.809-2.206,20.909-36.317-.021-23.849,3.082-4.024-2.9-1.679,0,0a1.962,1.962,0,0,0-2.1.12l-60.759,35.178a6.3,6.3,0,0,0-2.289,2.678Z" transform="translate(-270.906 -201.958)" fill="#396caa"/>
          <path id="Path_224" data-name="Path 224" d="M276.428,205.669l1.367-1.786-2.9-1.679,0,0a1.962,1.962,0,0,0-2.1.12l-1.07.621Z" transform="translate(-208.928 -201.958)" fill="#5793ce"/>
          <path id="Path_225" data-name="Path 225" d="M299.7,217.175a7.773,7.773,0,0,0-2.539,5.118l5.938,3.427,2.844-4.941Z" transform="translate(-297.14 -181.236)" fill="#274f89"/>
          <path id="Path_226" data-name="Path 226" d="M274.38,238.217l60.759-35.176c1.719-.994,3.115.057,3.118,2.35l.052,47.8a7.457,7.457,0,0,1-3.108,5.954l-60.756,35.178c-1.719.994-3.115-.059-3.118-2.352l-.052-47.8A7.47,7.47,0,0,1,274.38,238.217Z" transform="translate(-268.381 -200.993)" fill="#5793ce"/>
        </g>
        <path id="Path_227" data-name="Path 227" d="M302.508,225.413l.975,2.017a13.487,13.487,0,0,0,5.078,5.63l6.034,3.72a6.01,6.01,0,0,0,6.162.142c.069-.04.137-.08.206-.123a3.632,3.632,0,0,0,.512-5.578l-6.306-6.483s3.543,2.714,4.537,1.62c.727-.8-3.436-4.709-6.634-4.839s-6.289-2.638-6.289-2.638Z" transform="translate(-236.199 -23.462)" fill="#ffc2b0"/>
        <path id="Path_228" data-name="Path 228" d="M295.48,159.72s23.122,25.155,32.448,48.232c0,0-7.907,14.244-27.259,19.834S295.48,159.72,295.48,159.72Z" transform="translate(-213.18 -104.024)" fill="#5793ce"/>
        <path id="Path_229" data-name="Path 229" d="M301.774,208.78l-3.746-36.2,8.828,33.915A50.867,50.867,0,0,1,301.774,208.78Z" transform="translate(-209.932 -86.51)" fill="#396caa"/>
        <path id="Path_230" data-name="Path 230" d="M315.007,158.555l6.214-1.708s-2.966,4.667-7.3,5.857-5-2.477-5-2.477Z" transform="translate(-250.023 -107.936)" fill="#fff"/>
      </g>
      <path id="Path_231" data-name="Path 231" d="M322.672,155.354a3.46,3.46,0,1,0,3.46-3.46A3.459,3.459,0,0,0,322.672,155.354Z" transform="translate(-290.871 -114.681)" fill="#fff"/>
    </g>
    <g id="Group_50" data-name="Group 50" transform="translate(395.261 606.305)">
      <path id="Path_232" data-name="Path 232" d="M329.53,335.72c23.145-13.363,60.671-13.363,83.817,0s23.143,35.03,0,48.392-60.669,13.363-83.814,0S306.384,349.083,329.53,335.72Zm22.645,35.315c10.637,6.143,27.888,6.143,38.527,0s10.64-16.1,0-22.243-27.888-6.143-38.527,0S341.535,364.895,352.174,371.035Z" transform="translate(-302.615 -265.256)" fill="#d4ecff"/>
      <g id="Group_49" data-name="Group 49" transform="translate(0)">
        <g id="Group_45" data-name="Group 45" transform="translate(17.177)">
          <path id="Path_233" data-name="Path 233" d="M413.829,344.949l-21.14.331a22.471,22.471,0,0,0-6.677-5.614c-11.627-6.712-29.907-7.232-42.573-1.566l-12.562-11.816-19.343.3c.954-.626,1.937-1.242,2.973-1.84,26.882-15.522,70.465-15.522,97.345,0a51.091,51.091,0,0,1,12.1,9.423Z" transform="translate(-311.533 -282.404)" fill="#b0c9fe"/>
          <path id="Path_234" data-name="Path 234" d="M350.942,305.988v30.7l19.344-.3v-30.7Z" transform="translate(-350.942 -292.507)" fill="#b0c9fe"/>
          <path id="Path_235" data-name="Path 235" d="M358.185,317.5v30.7l-12.563-11.815v-30.7Z" transform="translate(-326.279 -292.507)" fill="#b0c9fe"/>
          <path id="Path_236" data-name="Path 236" d="M373.985,323.391v30.7l-27.812-22.663-21.438,15.484v-30.7l19.74-9.577s27.177,8.318,28.589,8.672S373.985,323.391,373.985,323.391Z" transform="translate(-292.829 -291.216)" fill="#b0c9fe"/>
          <path id="Path_237" data-name="Path 237" d="M336.96,313.589v30.7l-21.141.329v-30.7Z" transform="translate(-234.664 -281.745)" fill="#b0c9fe"/>
          <path id="Path_238" data-name="Path 238" d="M321.654,309.024v30.7l-10.119,10.781v-30.7Z" transform="translate(-209.238 -287.961)" fill="#b0c9fe"/>
          <path id="Path_239" data-name="Path 239" d="M413.829,331.95l-21.14.331a22.47,22.47,0,0,0-6.677-5.614c-11.627-6.712-29.907-7.232-42.573-1.566l-12.562-11.816-19.343.3c.954-.626,1.937-1.242,2.973-1.84,26.882-15.521,70.465-15.521,97.345,0a51.156,51.156,0,0,1,12.1,9.423Z" transform="translate(-311.533 -300.106)" fill="#b0c9fe"/>
        </g>
        <g id="Group_47" data-name="Group 47" transform="translate(0 18.365)">
          <path id="Path_240" data-name="Path 240" d="M366.62,312.288v28.221l-18.3-4.383s1.075-16.513,1.464-16.955S366.62,312.288,366.62,312.288Z" transform="translate(-323.905 -301.882)" fill="#5793ce"/>
          <g id="Group_46" data-name="Group 46">
            <path id="Path_241" data-name="Path 241" d="M357.334,324.237v30.7l-1.977,2.107-12.9-7.437s2-23.436,2.237-23.908S357.334,324.237,357.334,324.237Z" transform="translate(-300.769 -285.61)" fill="#173d7a"/>
            <path id="Path_242" data-name="Path 242" d="M374.108,320.881l11.062,10.406c-9.216,7.291-8.127,17.572,3.276,24.154a39.3,39.3,0,0,0,10.574,4.067l-11.436,12.184,10.132,9.527c-12.865-1.486-25.139-5.1-35.112-10.859-23.11-13.342-26.331-33.806-9.709-49.148Z" transform="translate(-342.455 -290.18)" fill="#396caa"/>
            <path id="Path_243" data-name="Path 243" d="M398.268,356.709v30.7l-25.087-9.688-30.173-28.787.112-32.6,31.923,25.3Z" transform="translate(-343.007 -296.371)" fill="#396caa"/>
            <path id="Path_244" data-name="Path 244" d="M374.108,307.882l11.062,10.406c-9.216,7.291-8.127,17.572,3.276,24.154a39.306,39.306,0,0,0,10.574,4.067l-11.436,12.182,10.132,9.53c-12.865-1.486-25.139-5.1-35.112-10.859-23.11-13.342-26.331-33.806-9.709-49.148Z" transform="translate(-342.455 -307.882)" fill="#d4ecff"/>
          </g>
        </g>
        <g id="Group_48" data-name="Group 48" transform="translate(55.343 27.04)">
          <path id="Path_245" data-name="Path 245" d="M308.125,366.53,318.2,355.793c9.357.567,19.062-1.214,26.232-5.354,7.409-4.277,10.458-10.115,9.164-15.68l24-.373,9.23-9.832c8.073,13.854,2.565,29.765-16.551,40.8-14.048,8.11-32.656,11.972-51.056,11.606Z" transform="translate(-308.124 -293.853)" fill="#396caa"/>
          <path id="Path_246" data-name="Path 246" d="M308.127,356.505v30.7l71.2-39.457V317.033l-10.4,4.2Z" transform="translate(-297.031 -304.095)" fill="#396caa"/>
          <path id="Path_247" data-name="Path 247" d="M338.274,329.328v30.7l11.1,10.435v-30.7Z" transform="translate(-338.274 -287.352)" fill="#173d7a"/>
          <path id="Path_248" data-name="Path 248" d="M308.125,353.531,318.2,342.794c9.357.567,19.062-1.214,26.232-5.354,7.409-4.277,10.458-10.115,9.164-15.68l24-.373,9.23-9.832c8.073,13.854,2.565,29.765-16.551,40.8-14.048,8.11-32.656,11.972-51.056,11.606Z" transform="translate(-308.124 -311.555)" fill="#5793ce"/>
        </g>
      </g>
    </g>
    <path id="Path_250" data-name="Path 250" d="M250.151,329.145A11.142,11.142,0,1,0,261.294,318,11.142,11.142,0,0,0,250.151,329.145Z" transform="translate(397.392 330.569)" fill="#d4ecff"/>
    <path id="Path_251" data-name="Path 251" d="M489.549,60.4a13.279,13.279,0,1,0,13.278-13.28A13.278,13.278,0,0,0,489.549,60.4Z" transform="translate(-411.682 -38.31)" fill="#d4ecff"/>
    <g id="Group_53" data-name="Group 53" transform="translate(144.589 122.394)">
      <g id="Group_51" data-name="Group 51" transform="translate(0)">
        <path id="Path_252" data-name="Path 252" d="M444.759,132.261,507.91,95.8a3.23,3.23,0,0,1,3.264-.262l0-.043,6.126,3.54s-2.714.99-4.306,1.573V146.6c0,3.741-2.274,8.087-5.08,9.707l-60.359,34.85v5.394l-6.188-3.564.033-.012c-1.046-.638-1.717-2.036-1.717-4.05V141.97C439.679,138.227,441.953,133.881,444.759,132.261Z" transform="translate(-439.679 -95.212)" fill="#051367"/>
        <path id="Path_253" data-name="Path 253" d="M443.941,194.3l63.151-36.458c2.806-1.62,5.08-5.968,5.08-9.709V101.176c0-3.741-2.274-5.46-5.08-3.84l-63.151,36.458c-2.806,1.62-5.08,5.968-5.08,9.709V190.46C438.861,194.2,441.135,195.92,443.941,194.3Z" transform="translate(-432.624 -93.15)" fill="#051367"/>
      </g>
      <g id="Group_52" data-name="Group 52" transform="translate(27.415 40.548)">
        <path id="Path_254" data-name="Path 254" d="M446.4,120.341c0,2.718,1.908,3.819,4.261,2.461a9.412,9.412,0,0,0,4.261-7.38c0-2.716-1.906-3.819-4.261-2.459A9.417,9.417,0,0,0,446.4,120.341Z" transform="translate(-420.58 -112.38)" fill="#051367"/>
        <path id="Path_255" data-name="Path 255" d="M451.861,123.5c0,2.716,1.906,3.819,4.261,2.459a9.418,9.418,0,0,0,4.261-7.378c0-2.718-1.908-3.819-4.261-2.461A9.412,9.412,0,0,0,451.861,123.5Z" transform="translate(-438.952 -108.083)" fill="#051367"/>
        <path id="Path_256" data-name="Path 256" d="M457.326,126.652c0,2.718,1.908,3.819,4.261,2.461a9.415,9.415,0,0,0,4.263-7.381c0-2.716-1.908-3.819-4.263-2.459A9.417,9.417,0,0,0,457.326,126.652Z" transform="translate(-457.326 -103.786)" fill="#051367"/>
      </g>
    </g>
    <g id="Group_56" data-name="Group 56" transform="translate(451.743 51.368)">
      <g id="Group_54" data-name="Group 54">
        <path id="Path_257" data-name="Path 257" d="M315.235,101.487l61.951-35.769a3.172,3.172,0,0,1,3.2-.257l0-.04,6.011,3.474s-2.662.968-4.223,1.542v45.117c0,3.67-2.232,7.933-4.986,9.523l-59.214,34.189v5.293l-6.072-3.5.033-.012c-1.025-.626-1.684-2-1.684-3.975V111.01C310.249,107.34,312.481,103.077,315.235,101.487Z" transform="translate(-310.249 -65.139)" fill="#5793ce"/>
        <path id="Path_258" data-name="Path 258" d="M314.432,162.348l61.951-35.766c2.754-1.589,4.986-5.855,4.986-9.525V70.99c0-3.67-2.232-5.356-4.986-3.767L314.432,102.99c-2.754,1.589-4.986,5.855-4.986,9.525v46.066C309.446,162.251,311.678,163.937,314.432,162.348Z" transform="translate(-303.327 -63.115)" fill="#d4ecff"/>
      </g>
      <g id="Group_55" data-name="Group 55" transform="translate(26.896 39.78)">
        <path id="Path_259" data-name="Path 259" d="M316.838,89.792c0,2.666,1.871,3.746,4.18,2.414a9.242,9.242,0,0,0,4.18-7.239c0-2.666-1.873-3.748-4.18-2.414A9.235,9.235,0,0,0,316.838,89.792Z" transform="translate(-291.51 -81.982)" fill="#fff"/>
        <path id="Path_260" data-name="Path 260" d="M322.2,92.889c0,2.666,1.873,3.746,4.18,2.414a9.24,9.24,0,0,0,4.18-7.241c0-2.666-1.871-3.746-4.18-2.414A9.246,9.246,0,0,0,322.2,92.889Z" transform="translate(-309.536 -77.767)" fill="#fff"/>
        <path id="Path_261" data-name="Path 261" d="M327.562,95.983c0,2.666,1.873,3.748,4.18,2.414a9.235,9.235,0,0,0,4.18-7.239c0-2.666-1.871-3.746-4.18-2.414A9.242,9.242,0,0,0,327.562,95.983Z" transform="translate(-327.562 -73.551)" fill="#fff"/>
      </g>
    </g>
  </g>
</svg>
