<svg width="1051" height="1101" viewBox="0 0 1051 1101" fill="none" xmlns="http://www.w3.org/2000/svg">
<rect width="1051" height="1080" fill="#F7FFF7"/>
<path d="M129.088 184.944C116.544 184.944 106.368 194.352 106.368 207.664C106.368 221.04 116.544 230.384 129.088 230.384C141.056 230.384 149.76 221.616 151.104 211.312V205.616H126.592V211.44H143.296C142.208 218.928 137.152 223.792 129.088 223.792C120.256 223.792 113.856 217.456 113.856 207.664C113.856 197.872 120.256 191.6 129.088 191.6C134.4 191.6 138.624 193.84 140.992 198.32H149.76C146.368 189.616 138.368 184.944 129.088 184.944ZM191.9 212.336C191.9 201.264 183.964 194.16 173.916 194.16C163.868 194.16 155.932 201.264 155.932 212.336C155.932 223.408 163.548 230.576 173.596 230.576C183.708 230.576 191.9 223.408 191.9 212.336ZM163.356 212.336C163.356 204.336 168.284 200.496 173.788 200.496C179.228 200.496 184.412 204.336 184.412 212.336C184.412 220.336 179.036 224.24 173.596 224.24C168.092 224.24 163.356 220.336 163.356 212.336ZM240.826 217.264C240.826 221.552 237.818 224.048 232.89 224.048H223.034V210.16H232.634C237.498 210.16 240.826 212.848 240.826 217.264ZM239.674 197.872C239.674 201.968 236.794 204.208 232.058 204.208H223.034V191.472H232.058C236.794 191.472 239.674 193.84 239.674 197.872ZM248.122 218.032C248.122 212.72 244.282 207.984 239.546 207.152C243.833 205.616 247.097 202.352 247.097 196.976C247.097 190.704 242.106 185.52 232.698 185.52H215.738V230H233.53C242.618 230 248.122 224.816 248.122 218.032ZM270.898 200.304C276.338 200.304 280.626 203.76 280.754 209.2H261.234C262.002 203.632 265.97 200.304 270.898 200.304ZM287.41 219.504H279.538C278.194 222.256 275.698 224.432 271.218 224.432C265.842 224.432 261.682 220.912 261.17 215.088H288.114C288.306 213.872 288.37 212.72 288.37 211.504C288.37 201.136 281.266 194.16 271.218 194.16C260.786 194.16 253.618 201.264 253.618 212.336C253.618 223.408 261.106 230.576 271.218 230.576C279.858 230.576 285.426 225.648 287.41 219.504ZM309.438 221.616L299.518 194.736H291.39L305.278 229.424L298.11 246.576H305.662L327.294 194.736H319.742L309.438 221.616ZM366.4 212.336C366.4 201.264 358.464 194.16 348.416 194.16C338.368 194.16 330.432 201.264 330.432 212.336C330.432 223.408 338.048 230.576 348.096 230.576C358.208 230.576 366.4 223.408 366.4 212.336ZM337.856 212.336C337.856 204.336 342.784 200.496 348.288 200.496C353.728 200.496 358.912 204.336 358.912 212.336C358.912 220.336 353.536 224.24 348.096 224.24C342.592 224.24 337.856 220.336 337.856 212.336ZM405.549 194.736H398.253V214.384C398.253 220.848 394.733 224.176 389.357 224.176C384.045 224.176 380.525 220.848 380.525 214.384V194.736H373.293V215.472C373.293 225.328 379.565 230.512 387.821 230.512C391.981 230.512 395.949 228.784 398.253 225.776V230H405.549V194.736ZM440.199 230H447.431V209.2C447.431 199.344 441.223 194.16 432.967 194.16C428.743 194.16 424.839 195.888 422.471 198.768V194.736H415.175V230H422.471V210.288C422.471 203.824 425.991 200.496 431.367 200.496C436.679 200.496 440.199 203.824 440.199 210.288V230ZM454.306 212.208C454.306 223.088 461.666 230.576 470.946 230.576C476.706 230.576 480.93 227.888 483.17 224.688V230H490.53V182.64H483.17V199.664C480.482 196.336 475.618 194.16 471.01 194.16C461.666 194.16 454.306 201.328 454.306 212.208ZM483.17 212.336C483.17 219.952 477.986 224.24 472.482 224.24C467.042 224.24 461.794 219.824 461.794 212.208C461.794 204.592 467.042 200.496 472.482 200.496C477.986 200.496 483.17 204.784 483.17 212.336ZM527.682 213.872V230H534.978V213.872L549.698 185.52H541.634L531.33 207.344L521.026 185.52H512.898L527.682 213.872ZM589.088 212.336C589.088 201.264 581.152 194.16 571.104 194.16C561.056 194.16 553.12 201.264 553.12 212.336C553.12 223.408 560.736 230.576 570.784 230.576C580.896 230.576 589.088 223.408 589.088 212.336ZM560.544 212.336C560.544 204.336 565.472 200.496 570.976 200.496C576.416 200.496 581.6 204.336 581.6 212.336C581.6 220.336 576.224 224.24 570.784 224.24C565.28 224.24 560.544 220.336 560.544 212.336ZM628.236 194.736H620.94V214.384C620.94 220.848 617.42 224.176 612.044 224.176C606.732 224.176 603.212 220.848 603.212 214.384V194.736H595.98V215.472C595.98 225.328 602.252 230.512 610.508 230.512C614.668 230.512 618.636 228.784 620.94 225.776V230H628.236V194.736ZM645.159 211.44C645.159 203.952 648.487 201.712 653.863 201.712H655.719V194.16C650.727 194.16 647.207 196.336 645.159 199.856V194.736H637.863V230H645.159V211.44ZM106.368 303.664C106.368 317.04 116.544 326.384 129.088 326.384C138.368 326.384 146.368 321.776 149.76 313.072H140.992C138.624 317.808 134.4 320.048 129.088 320.048C120.256 320.048 113.856 313.712 113.856 303.664C113.856 293.616 120.256 287.344 129.088 287.344C134.4 287.344 138.624 289.584 140.992 294.32H149.76C146.368 285.616 138.368 280.944 129.088 280.944C116.544 280.944 106.368 290.352 106.368 303.664ZM165.596 307.44C165.596 299.952 168.924 297.712 174.3 297.712H176.156V290.16C171.164 290.16 167.644 292.336 165.596 295.856V290.736H158.3V326H165.596V307.44ZM197.711 296.304C203.151 296.304 207.439 299.76 207.567 305.2H188.047C188.815 299.632 192.783 296.304 197.711 296.304ZM214.222 315.504H206.351C205.007 318.256 202.511 320.432 198.031 320.432C192.655 320.432 188.495 316.912 187.983 311.088H214.927C215.119 309.872 215.183 308.72 215.183 307.504C215.183 297.136 208.079 290.16 198.031 290.16C187.599 290.16 180.431 297.264 180.431 308.336C180.431 319.408 187.919 326.576 198.031 326.576C206.671 326.576 212.239 321.648 214.222 315.504ZM219.931 308.208C219.931 319.088 227.291 326.576 236.443 326.576C242.331 326.576 246.555 323.76 248.795 320.752V326H256.155V290.736H248.795V295.856C246.619 292.976 242.523 290.16 236.571 290.16C227.291 290.16 219.931 297.328 219.931 308.208ZM248.795 308.336C248.795 315.952 243.611 320.24 238.107 320.24C232.667 320.24 227.419 315.824 227.419 308.208C227.419 300.592 232.667 296.496 238.107 296.496C243.611 296.496 248.795 300.784 248.795 308.336ZM266.89 316.208C266.89 323.376 270.794 326 277.066 326H282.826V319.92H278.346C275.274 319.92 274.25 318.832 274.25 316.208V296.688H282.826V290.736H274.25V281.968H266.89V290.736H262.73V296.688H266.89V316.208ZM289.55 326H296.846V290.736H289.55V326ZM293.262 286.064C295.822 286.064 297.87 284.016 297.87 281.392C297.87 278.768 295.822 276.72 293.262 276.72C290.638 276.72 288.59 278.768 288.59 281.392C288.59 284.016 290.638 286.064 293.262 286.064ZM302.265 290.736L315.641 326H324.345L337.785 290.736H330.041L320.057 319.472L310.073 290.736H302.265ZM343.3 326H350.596V290.736H343.3V326ZM347.012 286.064C349.572 286.064 351.62 284.016 351.62 281.392C351.62 278.768 349.572 276.72 347.012 276.72C344.388 276.72 342.34 278.768 342.34 281.392C342.34 284.016 344.388 286.064 347.012 286.064ZM361.327 316.208C361.327 323.376 365.231 326 371.503 326H377.263V319.92H372.783C369.711 319.92 368.687 318.832 368.687 316.208V296.688H377.263V290.736H368.687V281.968H361.327V290.736H357.167V296.688H361.327V316.208ZM397.876 317.616L387.956 290.736H379.828L393.716 325.424L386.548 342.576H394.1L415.732 290.736H408.18L397.876 317.616ZM437.863 281.52V326H460.199V320.112H445.159V281.52H437.863ZM466.3 326H473.596V290.736H466.3V326ZM470.012 286.064C472.572 286.064 474.62 284.016 474.62 281.392C474.62 278.768 472.572 276.72 470.012 276.72C467.388 276.72 465.34 278.768 465.34 281.392C465.34 284.016 467.388 286.064 470.012 286.064ZM533.159 326H540.391V305.2C540.391 295.344 534.119 290.16 525.863 290.16C520.743 290.16 515.751 292.848 513.575 297.136C511.143 292.528 506.471 290.16 500.903 290.16C496.679 290.16 492.839 291.888 490.471 294.768V290.736H483.175V326H490.471V306.288C490.471 299.824 493.991 296.496 499.367 296.496C504.679 296.496 508.199 299.824 508.199 306.288V326H515.431V306.288C515.431 299.824 518.951 296.496 524.327 296.496C529.639 296.496 533.159 299.824 533.159 306.288V326ZM549.675 326H556.971V290.736H549.675V326ZM553.387 286.064C555.947 286.064 557.995 284.016 557.995 281.392C557.995 278.768 555.947 276.72 553.387 276.72C550.763 276.72 548.715 278.768 548.715 281.392C548.715 284.016 550.763 286.064 553.387 286.064ZM567.702 316.208C567.702 323.376 571.606 326 577.878 326H583.638V319.92H579.158C576.086 319.92 575.062 318.832 575.062 316.208V296.688H583.638V290.736H575.062V281.968H567.702V290.736H563.542V296.688H567.702V316.208ZM616.667 316.144C616.283 303.408 596.379 307.376 596.379 300.272C596.379 297.904 598.427 296.304 602.331 296.304C606.299 296.304 608.667 298.416 608.923 301.488H616.219C615.835 294.448 610.587 290.16 602.587 290.16C594.267 290.16 589.019 294.704 589.019 300.336C589.019 313.264 609.499 309.296 609.499 316.208C609.499 318.64 607.259 320.432 603.035 320.432C599.003 320.432 596.251 318.064 595.995 315.184H588.443C588.763 321.584 594.715 326.576 603.163 326.576C611.483 326.576 616.667 322.096 616.667 316.144Z" fill="#191919"/>
<path d="M342.465 65.9314C348.245 65.9314 352.93 61.2457 352.93 55.4657C352.93 49.6856 348.245 45 342.465 45C336.685 45 332 49.6856 332 55.4657C332 61.2457 336.685 65.9314 342.465 65.9314Z" fill="#FF6D66"/>
<path opacity="0.2" d="M66.7615 184.578C70.293 184.578 73.1558 181.715 73.1558 178.184C73.1558 174.652 70.293 171.789 66.7615 171.789C63.23 171.789 60.3672 174.652 60.3672 178.184C60.3672 181.715 63.23 184.578 66.7615 184.578Z" fill="#FF6D66"/>
<path d="M898.659 176.962H882.022V193.6H898.659V176.962Z" fill="#FFE1C0"/>
<path opacity="0.2" d="M168.272 71.3148L173.216 79.8844L178.161 88.454H168.272H158.383L163.327 79.8844L168.272 71.3148Z" fill="#A0C6F4"/>
<path d="M695.856 607.944C635.63 551.489 565.07 536.915 546.426 533.94C558.991 500.052 578.397 449.676 583.23 442.222C586.356 441.829 589.504 441.649 592.654 441.683C606.354 441.683 635.686 444.527 678.16 463.618C739.501 491.185 755.802 522.192 759.037 529.777L695.856 607.944Z" fill="white"/>
<path d="M592.655 445.4C606.057 445.4 634.794 448.207 676.58 467.001C731.991 491.948 749.892 519.831 754.65 529.256L695.503 602.516C666.247 576.187 632.087 555.885 594.978 542.77C580.834 537.679 566.3 533.744 551.519 531.003C565.405 493.695 580.498 455.29 585.573 445.698C587.227 445.549 589.606 445.4 592.692 445.4H592.655ZM592.692 437.965C588.915 437.886 585.139 438.147 581.409 438.745C577.059 440.195 541.37 536.97 541.37 536.97C541.37 536.97 626.076 545.614 696.246 613.409L763.164 530.464C763.164 530.464 752.011 492.803 679.517 460.235C637.08 441.143 607.507 437.928 592.543 437.928L592.692 437.965Z" fill="#FFB703"/>
<path d="M553.769 544.499C553.769 544.499 637.062 552.901 688.365 600.025" stroke="#2A1E17" stroke-linecap="round" stroke-linejoin="round"/>
<path d="M625.686 540.428L656.746 480.013L688.681 543.012L625.686 540.428Z" fill="#A0C6F4"/>
<path d="M631.727 539.573L662.787 479.158L694.722 542.157L631.727 539.573Z" stroke="#2A1E17" stroke-linecap="round" stroke-linejoin="round"/>
<path d="M602.562 434.284C602.562 434.284 695.986 442.761 753.98 511.689" stroke="#2A1E17" stroke-linecap="round" stroke-linejoin="round"/>
<path d="M650.278 702.005C645.148 698.287 641.783 695.703 641.783 695.703C643.196 693.844 665.669 669.883 678.681 650.587C678.681 650.587 652.36 703.548 650.278 702.005Z" fill="#2A1E17"/>
<path d="M331.882 527.509C334.391 531.691 335.488 530.018 342.719 529.368C349.95 528.717 360.247 534.089 363.853 542.993C367.46 551.898 366.363 553.273 364.411 554.389C362.459 555.504 348.574 557.177 348.016 559.965" stroke="#2A1E17" stroke-linecap="round" stroke-linejoin="round"/>
<path d="M519.195 980.08L512.726 969.131L489.732 1007.44L495.774 1012.09L519.195 980.08Z" fill="#F9865F"/>
<path d="M366.604 885.182C366.604 885.182 354.689 865.831 359.801 856.332L397.795 860.403L366.604 885.182Z" fill="#F9865F"/>
<path d="M366.604 885.182L368.872 890.424L361.864 917.788C361.421 919.478 361.464 921.258 361.986 922.925C362.509 924.592 363.491 926.078 364.82 927.212L399.561 875.851C401.154 873.487 401.851 870.633 401.527 867.801C401.203 864.969 399.88 862.346 397.795 860.403L390.025 853.19L366.604 885.182Z" fill="black"/>
<path d="M348.016 560.04C358.89 559.779 372.683 559.092 369.913 550.745C367.144 542.399 356.901 521.802 333.387 527.992C333.387 527.992 325.116 534.889 335.451 547.306C345.786 559.724 348.016 560.04 348.016 560.04Z" fill="#2A1E33"/>
<path d="M403.074 860.775C403.074 860.775 384.486 805.937 400.212 781.864C413.223 761.992 455.567 794.3 461.367 798.594L491.684 743.905C491.684 743.905 484.695 734.09 467.519 724.479C450.344 714.869 379.356 686.093 345.99 738.737C333.666 758.181 333.48 841.665 357.143 873.657L403.074 860.775Z" fill="#FFB703"/>
<path d="M403.074 860.775C403.074 860.775 384.486 805.937 400.212 781.864C413.223 761.992 455.567 794.3 461.367 798.594" stroke="#2A1E17" stroke-linecap="round" stroke-linejoin="round"/>
<path d="M491.683 743.905C477.891 758.423 437.016 829.136 427.815 862.875C415.528 908.084 420.156 945.579 487.743 1019.02L520.402 971.436C520.402 971.436 497.427 936.563 501.814 903.679C508.022 856.109 541.871 809.989 558.991 780.73L491.683 743.905Z" fill="#FFB703"/>
<path d="M496.87 750.039L551.222 792.701L567.449 768.015L496.87 750.039Z" fill="#2A1E17"/>
<path d="M809.002 705.202C817.478 707.024 823.934 710.252 828.371 714.887C832.813 719.535 830.806 721.951 829.189 723.364C827.571 724.777 821.307 723.159 815.861 718.326C810.415 713.493 809.002 705.202 809.002 705.202Z" fill="#FF8A66"/>
<path d="M641.783 695.703C643.196 693.844 665.669 669.883 678.681 650.587C678.681 650.587 717.994 694.644 722.27 696.075C723.85 696.595 733.423 696.465 745.468 696.354C765.692 696.131 792.589 695.926 798.537 698.919C808.017 703.641 813.705 706.02 816.065 712.657C818.426 719.293 819.374 723.624 813.705 724.014C807.069 724.498 802.812 715.965 802.812 715.965C796.562 719.322 790.054 722.175 783.35 724.498C783.35 724.498 732.958 744.054 699.276 734.592C690.112 732.008 641.783 695.703 641.783 695.703Z" fill="#F9865F"/>
<path d="M336.324 519.72C332.011 521.374 329.372 523.345 331.881 527.509C334.391 531.673 335.487 530.018 342.718 529.368C349.949 528.717 360.247 534.089 363.853 542.993C367.459 551.898 366.362 553.273 364.41 554.389C362.459 555.504 348.573 557.177 348.016 559.965C347.458 562.754 353.592 570.951 366.437 570.412L369.485 569.855C369.485 569.855 396.382 596.121 400.286 600.006C404.189 603.891 432.778 623.28 448.615 627.221C460.585 630.214 484.862 626.366 499.435 623.503C506.517 622.109 511.331 620.975 511.331 620.975C511.331 620.975 500.383 601.252 498.152 570.951C498.152 570.951 471.98 575.153 454.582 578.982C454.582 578.982 413.985 556.34 394.244 546.321C394.244 546.321 376.995 525.204 368.927 522.415C360.86 519.627 342.161 517.508 336.324 519.72Z" fill="#F9865F"/>
<path d="M499.361 623.596C506.443 622.202 511.257 621.068 511.257 621.068C511.257 621.068 498.004 604.338 495.792 574.074C495.792 574.074 489.807 580.525 491.666 597.683C494.008 619.358 499.361 623.596 499.361 623.596Z" fill="#2A1E17"/>
<path d="M495.234 570.673C495.234 570.673 495.606 607.721 505.532 623.168L509.082 621.737C509.082 621.737 462.333 676.445 447.202 712.192C444.73 718.047 544.288 781.641 558.992 780.749C558.992 780.749 607.507 706.708 624.05 684.754L641.895 698.585C641.895 698.585 676.859 663.154 678.736 650.587C678.736 650.587 644.962 609.487 617.395 597.441C589.829 585.395 564.94 564.798 535.255 565.449C509.566 565.839 495.234 570.673 495.234 570.673Z" fill="#FB8500"/>
<path d="M641.82 698.585L623.994 684.754L626.838 677.021L641.82 698.585Z" fill="#2A1E17"/>
<path d="M668.959 552.121C665.836 561.843 656.821 589.931 646.765 593.389C636.708 596.846 626.318 592.515 626.318 592.515L615.611 597.98C614.421 601.568 605.964 604.654 595.052 605.081C586.967 605.397 582.041 595.006 584.439 587.496C585.535 584.038 589.643 567.048 589.643 567.048C589.643 567.048 598.305 535.149 606.373 528.568C614.44 521.988 621.838 515.444 643.121 524.051C675.539 537.212 668.959 552.121 668.959 552.121Z" fill="#F9865F"/>
<path d="M604.327 553.515C602.896 559.463 596.706 571.398 592.636 569.241C588.565 567.085 587.152 561.62 590.015 551.117C592.877 540.614 595.275 516.783 603.379 512.489C611.484 508.195 615.071 513.195 615.071 513.195C615.071 513.195 611.484 495.796 621.986 493.398C621.986 493.398 625.555 491.743 624.124 503.659C625.514 500.382 627.96 497.664 631.071 495.937C634.183 494.209 637.783 493.57 641.299 494.123C654.311 495.554 658.939 513.92 658.939 513.92C659.316 512.403 660.217 511.068 661.482 510.149C662.747 509.231 664.295 508.789 665.854 508.901C671.821 508.901 680.892 517.731 678.736 527.49C678.736 527.49 693.997 522.713 702.101 534.926C710.205 547.139 709.257 560.449 689.703 565.691C669.256 571.175 669.442 547.325 666.337 544.22C663.233 541.116 659.906 537.547 648.456 541.841C637.005 546.135 625.072 533.494 625.072 533.494C625.072 533.494 623.213 548.756 621.261 550.225C619.309 551.693 615.536 553.571 616.484 546.414C617.432 539.257 618.64 539.963 617.915 538.067C617.19 536.171 613.975 530.13 607.19 535.446C599.569 541.283 604.327 553.515 604.327 553.515Z" fill="#2A1E33"/>
<path d="M607.581 556.155C603.027 552.437 599.867 545.596 603.863 538.867C607.86 532.137 614.421 531.226 616.41 533.773C618.399 536.32 619.18 540.614 617.302 545.707" stroke="#2A1E33" stroke-linecap="round" stroke-linejoin="round"/>
<path d="M495.773 1012.09L498.041 1017.31L491.033 1044.68C490.59 1046.37 490.633 1048.15 491.155 1049.81C491.678 1051.48 492.66 1052.97 493.989 1054.1V1054.1L528.693 1002.74C530.285 1000.38 530.982 997.522 530.659 994.691C530.335 991.859 529.012 989.236 526.927 987.293L519.157 980.08L495.773 1012.09Z" fill="black"/>
<path d="M615.072 513.195C615.072 513.195 612.395 504.551 604.421 502.265" stroke="#2A1E33" stroke-linecap="round" stroke-linejoin="round"/>
<path d="M446.013 709.571L542.281 575.115" stroke="#2A1E17" stroke-linecap="round" stroke-linejoin="round"/>
<path d="M581.948 584.522C578.472 589.039 576.892 608.446 592.859 609.691C601.965 610.598 611.124 608.586 619.012 603.947" stroke="#2A1E17" stroke-linecap="round" stroke-linejoin="round"/>
<path d="M368.835 522.508C368.835 522.508 379.839 537.064 381.568 542.25" stroke="#2A1E17" stroke-linecap="round" stroke-linejoin="round"/>
<path d="M780.822 717.75C780.822 717.75 788.257 723.791 802.812 715.891C808.11 713.047 804.336 706.336 797.607 708.009C790.878 709.682 782.923 707.173 782.923 707.173" stroke="#2A1E17" stroke-linecap="round" stroke-linejoin="round"/>
<path d="M811.529 706.039C811.529 706.039 818.574 714.274 818.388 719.163" stroke="#2A1E17" stroke-linecap="round" stroke-linejoin="round"/>
<path d="M707.733 705.147C707.733 705.147 714.109 696.651 722.269 696.075" stroke="#2A1E17" stroke-linecap="round" stroke-linejoin="round"/>
<path d="M438.856 592.794C438.856 592.794 442.574 581.194 454.508 579.075" stroke="#2A1E17" stroke-linecap="round" stroke-linejoin="round"/>
<path d="M471.181 768.796L456.943 795.954C456.943 795.954 410.026 875.349 425.956 926.655" stroke="#2A1E17" stroke-linecap="round" stroke-linejoin="round"/>
<path d="M512.744 859.883L558.898 780.749C558.898 780.749 619.403 692.989 625.593 680.702L646.95 641.2" stroke="#2A1E17" stroke-linecap="round" stroke-linejoin="round"/>
<path d="M452.481 718.01C452.481 718.01 534.585 777.867 558.917 780.749" stroke="#2A1E17" stroke-linecap="round" stroke-linejoin="round"/>
<path d="M495.234 570.673C495.234 570.673 495.234 608.241 505.291 623.633" stroke="#2A1E17" stroke-linecap="round" stroke-linejoin="round"/>
<path d="M676.041 644.639C673.457 660.105 639.199 692.617 639.199 692.617" stroke="#2A1E17" stroke-linecap="round" stroke-linejoin="round"/>
<path d="M420.343 837.445C423.032 837.445 425.213 835.265 425.213 832.575C425.213 829.885 423.032 827.705 420.343 827.705C417.653 827.705 415.473 829.885 415.473 832.575C415.473 835.265 417.653 837.445 420.343 837.445Z" fill="#2A1E17"/>
<path d="M877.685 937.325L874.989 918.68L890.901 929.257L882.573 931.06L877.685 937.325Z" stroke="#2A1E17" stroke-linecap="round" stroke-linejoin="round"/>
<path d="M350.247 619.023C320.116 592.422 270.318 658.729 452.482 869.791C557.598 991.549 640.222 1002.46 651.375 960.097C671.45 884.104 598.956 864.902 625.946 894.663C665.167 937.938 776.714 947.084 859.859 906.709C941.889 866.853 891.459 804.97 886.366 801.345" stroke="#2A1E17" stroke-linecap="round" stroke-linejoin="round"/>
<path d="M861.234 911.189C863.924 911.189 866.104 909.008 866.104 906.318C866.104 903.628 863.924 901.448 861.234 901.448C858.545 901.448 856.364 903.628 856.364 906.318C856.364 909.008 858.545 911.189 861.234 911.189Z" fill="#2A1E17"/>
<path d="M790.302 946.118L934.806 864.66" stroke="#2A1E17" stroke-linecap="round" stroke-linejoin="round"/>
<path d="M353.276 627.834C355.966 627.834 358.146 625.654 358.146 622.964C358.146 620.274 355.966 618.094 353.276 618.094C350.587 618.094 348.406 620.274 348.406 622.964C348.406 625.654 350.587 627.834 353.276 627.834Z" fill="#2A1E17"/>
<path d="M477.557 532.769C483.337 532.769 488.022 528.084 488.022 522.304C488.022 516.524 483.337 511.838 477.557 511.838C471.777 511.838 467.092 516.524 467.092 522.304C467.092 528.084 471.777 532.769 477.557 532.769Z" fill="#FF6D66"/>
<path d="M287.809 442.538C286.897 442.534 286.004 442.801 285.243 443.306C284.482 443.81 283.889 444.529 283.537 445.371C283.185 446.213 283.091 447.14 283.267 448.036C283.443 448.931 283.88 449.754 284.524 450.401C285.168 451.048 285.99 451.488 286.884 451.668C287.779 451.847 288.707 451.757 289.55 451.409C290.394 451.06 291.115 450.469 291.622 449.711C292.13 448.952 292.4 448.06 292.4 447.148C292.4 445.928 291.917 444.758 291.057 443.894C290.196 443.03 289.029 442.543 287.809 442.538V442.538Z" fill="#A0C6F4"/>
<path d="M903.801 1013.56C906.337 1013.56 908.393 1011.5 908.393 1008.97C908.393 1006.43 906.337 1004.38 903.801 1004.38C901.266 1004.38 899.21 1006.43 899.21 1008.97C899.21 1011.5 901.266 1013.56 903.801 1013.56Z" fill="#FAD8B0"/>
<path d="M821.661 801.327L772.198 778.146C771.326 777.715 770.594 777.046 770.086 776.216C769.579 775.387 769.317 774.43 769.331 773.458C769.344 772.485 769.633 771.536 770.163 770.721C770.694 769.906 771.444 769.258 772.328 768.852L864.265 728.402C864.909 728.117 865.605 727.97 866.309 727.97C867.014 727.97 867.71 728.117 868.354 728.402L931.554 755.504L821.661 801.327Z" fill="#2A1E33"/>
<path d="M818.667 725.111C818.779 745.559 821.716 801.327 821.716 801.327L931.609 755.43L929.137 677.82C929.104 676.72 928.8 675.644 928.251 674.69C927.703 673.735 926.926 672.932 925.991 672.35C925.056 671.768 923.992 671.427 922.893 671.357C921.794 671.286 920.695 671.489 919.694 671.946L825.099 715.073C823.169 715.942 821.533 717.354 820.391 719.136C819.249 720.918 818.65 722.995 818.667 725.111V725.111Z" fill="#C6CBCB"/>
<path d="M821.66 801.327L931.553 755.43L929.081 677.82C929.081 677.82 928.356 669.344 919.638 671.946" stroke="#2A1E17" stroke-linecap="round" stroke-linejoin="round"/>
<path d="M874.841 745.541L882.258 728.011" stroke="#2A1E17" stroke-linecap="round" stroke-linejoin="round"/>
<path d="M882.258 745.541L889.693 728.011" stroke="#2A1E17" stroke-linecap="round" stroke-linejoin="round"/>
<path d="M307.624 936.823C310.16 936.823 312.216 934.767 312.216 932.231C312.216 929.696 310.16 927.64 307.624 927.64C305.089 927.64 303.033 929.696 303.033 932.231C303.033 934.767 305.089 936.823 307.624 936.823Z" fill="#FF6D66"/>
<path d="M695.242 961.417C698.773 961.417 701.636 958.554 701.636 955.022C701.636 951.49 698.773 948.627 695.242 948.627C691.71 948.627 688.848 951.49 688.848 955.022C688.848 958.554 691.71 961.417 695.242 961.417Z" fill="#FF6D66"/>
<path d="M355.266 1000.44C373.466 1008.8 393.286 1013.05 413.316 1012.89C413.688 1012.89 414.055 1012.97 414.393 1013.13C414.732 1013.28 415.033 1013.51 415.279 1013.79C415.525 1014.06 415.709 1014.39 415.819 1014.75C415.929 1015.1 415.963 1015.48 415.919 1015.85L411.904 1047.67C411.824 1048.22 411.57 1048.73 411.179 1049.13C410.787 1049.53 410.279 1049.79 409.729 1049.88C401.587 1051.43 368.835 1055.92 344.261 1035.01C343.888 1034.69 343.612 1034.27 343.468 1033.8C343.323 1033.33 343.315 1032.83 343.444 1032.35L351.548 1002C351.66 1001.63 351.852 1001.29 352.11 1001C352.368 1000.72 352.685 1000.49 353.04 1000.34C353.395 1000.19 353.779 1000.13 354.163 1000.14C354.548 1000.16 354.924 1000.26 355.266 1000.44V1000.44Z" fill="#FFF7DC"/>
<path d="M358.146 1009.73C358.146 1009.73 372.311 1029.64 377.367 1032.5C382.423 1035.36 409.71 1019.08 409.71 1019.08" stroke="#2A1E17" stroke-linecap="round" stroke-linejoin="round"/>
<path d="M390.731 1029.75L405.621 1045.05" stroke="#2A1E17" stroke-linecap="round" stroke-linejoin="round"/>
<path d="M370.043 1026.79L352.626 1031.53" stroke="#2A1E17" stroke-linecap="round" stroke-linejoin="round"/>
<path d="M811.139 623.8H794.503V640.438H811.139V623.8Z" fill="#FFE1C0"/>
<path d="M796.752 848.153L801.697 856.722L806.641 865.292H796.752H786.863L791.808 856.722L796.752 848.153Z" fill="#A0C6F4"/>
<path d="M396.996 468.786L398.297 429.897C398.148 426.179 399.635 425.12 401.866 424.618C412.424 422.294 444.619 415.137 479.434 425.454C483.951 426.793 483.802 429.172 483.728 431.328L482.483 468.395C482.392 469.088 482.157 469.754 481.793 470.35C481.429 470.947 480.945 471.46 480.37 471.858C479.796 472.255 479.145 472.528 478.458 472.658C477.772 472.789 477.066 472.774 476.386 472.615C463.731 471.1 450.985 470.479 438.243 470.756C425.987 470.704 413.75 471.692 401.661 473.712C398.204 474.362 396.903 471.834 396.996 468.786Z" stroke="#2A1E17" stroke-linecap="round" stroke-linejoin="round"/>
<path d="M396.996 468.786L398.297 429.897C398.148 426.179 399.635 425.12 401.866 424.618C412.424 422.294 444.619 415.137 479.434 425.454C483.951 426.793 483.802 429.172 483.728 431.328L482.483 468.395C482.392 469.088 482.157 469.754 481.793 470.35C481.429 470.947 480.945 471.46 480.37 471.858C479.796 472.255 479.145 472.528 478.458 472.658C477.772 472.789 477.066 472.774 476.386 472.615C463.731 471.1 450.985 470.479 438.243 470.756C425.987 470.704 413.75 471.692 401.661 473.712C398.204 474.362 396.903 471.834 396.996 468.786Z" stroke="#2A1E17" stroke-linecap="round" stroke-linejoin="round"/>
<path d="M408.743 463.209L429.079 439.415L451.57 461.629C443.8 459.008 408.743 463.209 408.743 463.209Z" stroke="#2A1E17" stroke-linecap="round" stroke-linejoin="round"/>
<path d="M408.743 463.209L429.079 439.415L451.57 461.629C443.8 459.008 408.743 463.209 408.743 463.209Z" stroke="#2A1E17" stroke-linecap="round" stroke-linejoin="round"/>
<path d="M441.533 450.345L457.947 437.184L471.795 447.073L472.315 462.521L451.571 461.517" stroke="#2A1E17" stroke-linecap="round" stroke-linejoin="round"/>
<path d="M441.533 450.345L457.947 437.184L471.795 447.073L472.315 462.521L451.571 461.517" stroke="#2A1E17" stroke-linecap="round" stroke-linejoin="round"/>
<path d="M417.527 437.552C417.716 435.682 416.089 433.987 413.893 433.765C411.697 433.543 409.763 434.879 409.574 436.748C409.386 438.617 411.013 440.312 413.209 440.534C415.405 440.756 417.338 439.421 417.527 437.552Z" stroke="#2A1E17" stroke-linecap="round" stroke-linejoin="round"/>
<path d="M417.527 437.552C417.716 435.682 416.089 433.987 413.893 433.765C411.697 433.543 409.763 434.879 409.574 436.748C409.386 438.617 411.013 440.312 413.209 440.534C415.405 440.756 417.338 439.421 417.527 437.552Z" stroke="#2A1E17" stroke-linecap="round" stroke-linejoin="round"/>
<path d="M789.949 973.871L803.574 999.041C805.006 1001.29 804.504 1002.57 803.259 1003.73C797.422 1009.13 779.633 1025.6 753.61 1032.04C750.245 1032.87 749.446 1031.29 748.702 1029.9L735.691 1005.9C735.494 1005.43 735.398 1004.91 735.409 1004.4C735.42 1003.89 735.537 1003.38 735.754 1002.91C735.971 1002.45 736.282 1002.03 736.668 1001.69C737.053 1001.35 737.506 1001.09 737.996 1000.94C746.599 997.202 754.923 992.853 762.904 987.925C770.764 983.447 778.227 978.303 785.209 972.551C787.068 970.693 788.927 971.901 789.949 973.871Z" stroke="#2A1E17" stroke-linecap="round" stroke-linejoin="round"/>
<path d="M784.596 981.846L780.525 1004.51L757.996 998.762C763.851 997.498 784.596 981.846 784.596 981.846Z" stroke="#2A1E17" stroke-linecap="round" stroke-linejoin="round"/>
<path d="M768.517 1002.15L762.978 1016.61L750.505 1015.47L744.427 1005.84L757.978 998.762" stroke="#2A1E17" stroke-linecap="round" stroke-linejoin="round"/>
<path d="M792.172 1002.53C793.647 1001.86 794.379 1000.3 793.807 999.049C793.236 997.797 791.576 997.33 790.101 998.004C788.626 998.678 787.893 1000.24 788.465 1001.49C789.037 1002.74 790.696 1003.21 792.172 1002.53Z" stroke="#2A1E17" stroke-linecap="round" stroke-linejoin="round"/>
<path d="M723.59 544.127L778.964 586.511C779.252 586.733 779.581 586.895 779.932 586.988C780.284 587.082 780.65 587.104 781.01 587.053C781.37 587.003 781.717 586.882 782.029 586.696C782.342 586.51 782.614 586.264 782.83 585.971L791.195 574.632C791.606 574.067 791.783 573.365 791.69 572.673C791.596 571.98 791.239 571.35 790.693 570.914L736.1 527.211C735.81 526.98 735.477 526.81 735.12 526.712C734.763 526.614 734.39 526.589 734.023 526.64C733.656 526.69 733.303 526.815 732.986 527.006C732.669 527.196 732.394 527.45 732.177 527.75L723.032 540.391C722.621 540.964 722.45 541.675 722.554 542.372C722.658 543.069 723.03 543.699 723.59 544.127V544.127Z" fill="white" stroke="#2A1E17" stroke-linecap="round" stroke-linejoin="round"/>
<path d="M727.679 542.231L741.118 551.656L749.036 542.194L735.597 530.985L727.679 542.231Z" fill="#FF6D66"/>
<path d="M746.174 555.337L759.613 566.007L766.825 557.14L753.293 546.154L746.174 555.337Z" fill="#FB8500"/>
<path d="M764.148 570.096L777.569 579.521L783.963 571.305L771.249 560.653L764.148 570.096Z" fill="#A0C6F4"/>
<path d="M834.096 484.865L846.717 590.823C846.774 591.381 846.943 591.921 847.213 592.413C847.484 592.904 847.85 593.336 848.29 593.682C848.731 594.029 849.236 594.284 849.777 594.432C850.318 594.579 850.883 594.616 851.439 594.541L872.815 591.604C873.887 591.46 874.862 590.904 875.531 590.054C876.201 589.204 876.514 588.126 876.402 587.05L866.049 480.46C865.992 479.896 865.822 479.351 865.548 478.855C865.274 478.36 864.903 477.925 864.456 477.578C864.01 477.23 863.497 476.977 862.95 476.833C862.402 476.689 861.831 476.658 861.272 476.742L837.646 480.199C836.561 480.356 835.581 480.933 834.917 481.806C834.253 482.679 833.958 483.777 834.096 484.865Z" fill="white" stroke="#2A1E17" stroke-linecap="round" stroke-linejoin="round"/>
<path d="M840.546 487.337L844.542 512.135L863.391 510.741L861.346 484.029L840.546 487.337Z" fill="#FF6D66"/>
<path d="M845.918 521.616L848.558 547.771L865.993 546.209L863.595 519.627L845.918 521.616Z" fill="#91BA83"/>
<path d="M848.892 557.121L852.888 581.919L868.744 580.172L866.848 554.835L848.892 557.121Z" fill="#FB8500"/>
<path d="M806.548 507.432L841.494 610.175C841.636 610.593 841.86 610.979 842.152 611.31C842.445 611.641 842.801 611.911 843.199 612.103C843.597 612.295 844.029 612.406 844.47 612.429C844.912 612.452 845.353 612.387 845.769 612.238L867.666 604.356C868.475 604.061 869.138 603.465 869.519 602.693C869.9 601.921 869.969 601.032 869.711 600.211L836.903 496.465C836.765 496.034 836.541 495.636 836.245 495.294C835.95 494.952 835.587 494.673 835.181 494.475C834.774 494.277 834.332 494.164 833.88 494.141C833.429 494.119 832.977 494.189 832.553 494.346L808.537 503.25C807.721 503.544 807.055 504.149 806.682 504.932C806.31 505.715 806.262 506.614 806.548 507.432V507.432Z" fill="white" stroke="#2A1E17" stroke-linecap="round" stroke-linejoin="round"/>
<path d="M813.63 509.31L822.701 532.751L840.843 527.453L833.296 501.744L813.63 509.31Z" fill="#A0C6F4"/>
<path d="M826.01 541.729L834.04 566.769L850.769 561.601L842.888 536.097L826.01 541.729Z" fill="#F9865F"/>
<path d="M836.308 575.84L845.379 599.263L860.528 594.244L853.39 569.855L836.308 575.84Z" fill="#FB8500"/>
<path d="M543.154 637.203H366.66C361.034 637.203 356.474 641.764 356.474 647.39V671.277C356.474 676.903 361.034 681.464 366.66 681.464H543.154C548.78 681.464 553.341 676.903 553.341 671.277V647.39C553.341 641.764 548.78 637.203 543.154 637.203Z" fill="#4ECDC4"/>
<path d="M477.018 650.234H380.806C378.948 650.234 377.441 651.741 377.441 653.599C377.441 655.457 378.948 656.963 380.806 656.963H477.018C478.876 656.963 480.382 655.457 480.382 653.599C480.382 651.741 478.876 650.234 477.018 650.234Z" fill="white"/>
<path d="M378.408 665.7H541.965" stroke="#2A1E17" stroke-linecap="round" stroke-linejoin="round"/>
<path d="M294.72 553.923L297.503 556.97C298.068 557.589 298.364 558.407 298.326 559.244C298.289 560.081 297.92 560.869 297.301 561.434L292.744 565.597C292.126 566.162 291.308 566.458 290.47 566.42C289.633 566.382 288.845 566.013 288.28 565.395L285.497 562.348L294.72 553.923V553.923Z" fill="#91BA83"/>
<path d="M269.658 548L282.783 562.37C283.462 563.113 284.614 563.165 285.357 562.486L294.428 554.199C295.171 553.521 295.223 552.369 294.545 551.626L281.419 537.256C280.741 536.513 279.589 536.461 278.846 537.139L269.774 545.426C269.031 546.105 268.979 547.257 269.658 548Z" stroke="#2A1E17" stroke-linecap="round" stroke-linejoin="round"/>
<path d="M255.968 613.368H239.48V628.425H255.968V613.368Z" fill="#FF6D66"/>
<path d="M239.48 603.613V613.298H229.609" stroke="#2A1E17" stroke-linecap="round" stroke-linejoin="round"/>
<path d="M799.205 443.263H782.718V458.32H799.205V443.263Z" fill="#FAD8B0"/>
<path d="M782.718 433.578V443.263H772.848" stroke="#2A1E17" stroke-linecap="round" stroke-linejoin="round"/>
<path d="M336.436 536.338C165.425 465.477 33.8956 601.958 356.121 810.937C381.494 827.407 420.417 833.244 420.417 833.244" stroke="#2A1E17" stroke-linecap="round" stroke-linejoin="round"/>
<path d="M179.218 545.968C181.907 545.968 184.088 543.787 184.088 541.097C184.088 538.407 181.907 536.227 179.218 536.227C176.528 536.227 174.348 538.407 174.348 541.097C174.348 543.787 176.528 545.968 179.218 545.968Z" fill="#2A1E17"/>
<path d="M148.193 514.348L153.528 509.217L165.796 516.244L171.949 535.26L153.138 527.379L148.193 514.348Z" stroke="#2A1E17" stroke-linecap="round" stroke-linejoin="round"/>
<path d="M153.529 509.217L148.194 514.348L145.201 510.723L150.331 505.815L153.529 509.217Z" stroke="#2A1E17" stroke-linecap="round" stroke-linejoin="round"/>
<path d="M171.95 535.26L159.719 521.82" stroke="#2A1E17" stroke-linecap="round" stroke-linejoin="round"/>
<path d="M201.541 876.52L214.813 945.002C214.884 945.358 215.025 945.696 215.227 945.997C215.429 946.299 215.689 946.557 215.991 946.757C216.294 946.958 216.633 947.096 216.989 947.165C217.345 947.234 217.711 947.232 218.066 947.159L231.859 944.222C232.55 944.073 233.156 943.664 233.551 943.078C233.946 942.492 234.099 941.776 233.978 941.08L222.193 872.17C222.129 871.806 221.992 871.459 221.79 871.149C221.588 870.84 221.325 870.574 221.017 870.369C220.71 870.164 220.364 870.024 220 869.956C219.637 869.889 219.263 869.896 218.903 869.977L203.679 873.36C203.331 873.427 203 873.561 202.704 873.756C202.408 873.952 202.154 874.203 201.955 874.497C201.756 874.79 201.618 875.12 201.547 875.467C201.476 875.814 201.474 876.172 201.541 876.52V876.52Z" fill="white" stroke="#2A1E17" stroke-linecap="round" stroke-linejoin="round"/>
<path d="M205.91 877.821L209.702 893.789L221.915 891.986L219.294 874.679L205.91 877.821Z" fill="#FF6D66"/>
<path d="M211.04 899.905L214.014 916.803L225.297 914.962L222.453 897.749L211.04 899.905Z" fill="#FAD8B0"/>
<path d="M214.684 922.881L218.476 938.849L228.718 936.934L226.264 920.539L214.684 922.881Z" fill="#A0C6F4"/>
<path d="M582.06 1048.12L638.214 1033.1L640.352 1039.17L583.565 1053.92L582.06 1048.12Z" stroke="#2A1E17" stroke-linecap="round" stroke-linejoin="round"/>
<path d="M574.271 1040.27L575.888 1045.36" stroke="#2A1E17" stroke-linecap="round" stroke-linejoin="round"/>
<path d="M572.69 1043.6L577.43 1041.96" stroke="#2A1E17" stroke-linecap="round" stroke-linejoin="round"/>
<path d="M571.538 1059.73L574.605 1069.36" stroke="#2A1E17" stroke-linecap="round" stroke-linejoin="round"/>
<path d="M568.937 1065.83L577.376 1063.15" stroke="#2A1E17" stroke-linecap="round" stroke-linejoin="round"/>
<path d="M558.713 1043.86L562.691 1056.61" stroke="#2A1E17" stroke-linecap="round" stroke-linejoin="round"/>
<path d="M554.753 1051.8L566.575 1048.02" stroke="#2A1E17" stroke-linecap="round" stroke-linejoin="round"/>
<path d="M172.637 438.095L137.097 422.052L138.565 418L174.31 434.451L172.637 438.095Z" stroke="#2A1E17" stroke-width="0.67" stroke-linecap="round" stroke-linejoin="round"/>
<path d="M173.344 445.493L174.664 442.147" stroke="#2A1E17" stroke-width="0.67" stroke-linecap="round" stroke-linejoin="round"/>
<path d="M175.574 444.434L172.414 443.263" stroke="#2A1E17" stroke-width="0.67" stroke-linecap="round" stroke-linejoin="round"/>
<path d="M183.028 436.533L185.519 430.25" stroke="#2A1E17" stroke-width="0.67" stroke-linecap="round" stroke-linejoin="round"/>
<path d="M186.969 434.47L181.448 432.276" stroke="#2A1E17" stroke-width="0.67" stroke-linecap="round" stroke-linejoin="round"/>
<path d="M182.953 450.234L186.28 441.924" stroke="#2A1E17" stroke-width="0.67" stroke-linecap="round" stroke-linejoin="round"/>
<path d="M188.363 447.798L180.63 444.731" stroke="#2A1E17" stroke-width="0.67" stroke-linecap="round" stroke-linejoin="round"/>
<path d="M305.431 738.217C280.374 720.185 255.763 692.153 266.563 663.358C266.563 663.358 283.831 651.851 311.174 666.239L338.536 680.702L305.431 738.217Z" fill="#FAD8B0"/>
<path d="M294.073 858.358C282.79 853.023 234.684 827.965 226.115 785.154C218.68 748.199 247.008 698.324 261.172 676.278C260.262 705.518 289.631 730.279 303.795 740.466C315.848 749.328 329.146 756.357 343.258 761.323L294.073 858.358Z" fill="white"/>
<path d="M259.016 684.977C262.083 704.422 276.916 724.554 302.159 742.734C313.549 751.14 326.064 757.904 339.335 762.829L292.865 854.659C278.664 847.595 236.71 823.689 228.885 784.615C222.397 752.14 244.406 709.069 259.053 684.977H259.016ZM266.6 663.358C266.6 663.358 213.345 735.335 223.42 785.712C233.494 836.088 295.393 861.927 295.393 861.927L347.198 759.687C331.008 753.757 320.487 748.924 305.468 738.105C280.411 720.074 255.8 692.041 266.6 663.247V663.358Z" fill="#FAD8B0"/>
<path d="M252.566 705.184C254.128 714.547 257.828 723.423 263.38 731.123C268.931 738.822 276.185 745.136 284.575 749.575" stroke="#2A1E17" stroke-linecap="round" stroke-linejoin="round"/>
<path d="M300.059 759.91L328.963 775.395" stroke="#2A1E17" stroke-linecap="round" stroke-linejoin="round"/>
<path d="M256.692 746.489C256.692 746.489 265.986 767.141 295.913 780.563" stroke="#2A1E17" stroke-linecap="round" stroke-linejoin="round"/>
<path d="M232.938 749.575C232.938 749.575 233.978 771.268 248.421 778.499" stroke="#2A1E17" stroke-linecap="round" stroke-linejoin="round"/>
<path d="M265.987 674.214C265.987 674.214 263.31 702.098 305.431 738.217" stroke="#2A1E17" stroke-linecap="round" stroke-linejoin="round"/>
<path d="M281.471 679.382C281.471 679.382 294.891 678.341 314.502 692.803" stroke="#2A1E17" stroke-linecap="round" stroke-linejoin="round"/>
<path d="M218.271 768.275C217.416 782.087 219.145 832.147 291.638 864.084" stroke="#2A1E17" stroke-linecap="round" stroke-linejoin="round"/>
<path d="M681.246 740.429L650.501 802.052C650.501 802.052 671.357 809.729 655.055 833.653C655.055 833.653 693.607 849.64 718.831 808.13C744.055 766.621 681.246 740.429 681.246 740.429Z" fill="#FF6B6B"/>
<path d="M610.871 928.774C595.313 928.774 578.899 922.417 562.04 909.869L619.552 814.544L653.772 836.089L653.995 836.181C659.977 838.377 666.306 839.472 672.677 839.416C683.484 839.483 694.039 836.146 702.845 829.88L660.799 901.913C660.706 902.043 642.601 928.83 610.871 928.83V928.774Z" fill="white"/>
<path d="M620.481 818.447L652.081 838.356L652.489 838.617L652.917 838.784C659.24 841.121 665.935 842.293 672.676 842.241C680.422 842.271 688.087 840.662 695.168 837.52L658.475 900.295C657.285 902.043 640.258 925.986 610.889 925.986C596.558 925.986 581.39 920.316 565.739 909.125L620.481 818.447V818.447ZM718.831 808.112C704.573 831.571 686.078 836.665 672.676 836.665C666.669 836.714 660.701 835.688 655.055 833.635L618.641 810.714L558.434 910.575C578.546 926.079 596.149 931.655 610.889 931.655C644.552 931.655 663.215 903.363 663.215 903.363L718.831 808.205V808.112Z" fill="#FF6B6B"/>
<path d="M650.501 802.052C650.501 802.052 673.439 810.157 655.055 833.653" stroke="#2A1E17" stroke-linecap="round" stroke-linejoin="round"/>
<path d="M617.916 808.558C617.916 808.558 649.163 837.185 666.45 836.981C683.737 836.776 704.035 832.687 715.987 812.053" stroke="#2A1E17" stroke-linecap="round" stroke-linejoin="round"/>
<path d="M621.764 845.588C621.764 845.588 643.196 864.623 667.174 858.507" stroke="#2A1E17" stroke-linecap="round" stroke-linejoin="round"/>
<path d="M644.273 874.029C644.273 874.029 655.519 882.45 671.245 874.475" stroke="#2A1E17" stroke-linecap="round" stroke-linejoin="round"/>
<path d="M592.524 885.777C592.524 885.777 618.548 911.598 659.349 894.57" stroke="#2A1E17" stroke-linecap="round" stroke-linejoin="round"/>
<path d="M606.651 860.589C606.651 860.589 617.247 868.173 623.883 870.59" stroke="#2A1E17" stroke-linecap="round" stroke-linejoin="round"/>
<path d="M686.524 758.311C686.524 758.311 710.224 766.063 713.068 797.349" stroke="#2A1E17" stroke-linecap="round" stroke-linejoin="round"/>
<path d="M698.439 796.958C698.439 796.958 709.351 813.856 690.911 830.735" stroke="#2A1E17" stroke-linecap="round" stroke-linejoin="round"/>
<path d="M560.553 915.297C560.553 915.297 620.035 966.268 663.252 906.671" stroke="#2A1E17" stroke-linecap="round" stroke-linejoin="round"/>
<path d="M131 721.189H144.867" stroke="#FF6D66" stroke-linecap="round" stroke-linejoin="round"/>
<path d="M903.801 554.314H917.686" stroke="#FF6D66" stroke-linecap="round" stroke-linejoin="round"/>
<path d="M531.778 459.138H545.645" stroke="#FAD8B0" stroke-miterlimit="10"/>
<path d="M930.289 626.273L943.951 628.727" stroke="#FAD8B0" stroke-miterlimit="10"/>
<path d="M385.341 972.458H399.208" stroke="#A0C6F4" stroke-linecap="round" stroke-linejoin="round"/>
<path d="M960.179 804.097C962.715 804.097 964.77 802.041 964.77 799.505C964.77 796.969 962.715 794.914 960.179 794.914C957.643 794.914 955.588 796.969 955.588 799.505C955.588 802.041 957.643 804.097 960.179 804.097Z" fill="#91BA83"/>
<path d="M1013.64 1100.39C1016.33 1100.39 1018.51 1098.21 1018.51 1095.52C1018.51 1092.83 1016.33 1090.65 1013.64 1090.65C1010.95 1090.65 1008.77 1092.83 1008.77 1095.52C1008.77 1098.21 1010.95 1100.39 1013.64 1100.39Z" fill="#2A1E17"/>
<g opacity="0.5">
<path d="M776.005 320.753L777.306 281.864C777.157 278.146 778.644 277.087 780.875 276.585C791.433 274.261 823.627 267.104 858.443 277.421C862.96 278.76 862.811 281.139 862.737 283.296L861.491 320.362C861.401 321.055 861.166 321.721 860.802 322.317C860.438 322.914 859.953 323.427 859.379 323.825C858.805 324.222 858.153 324.495 857.467 324.626C856.781 324.756 856.075 324.741 855.394 324.582C842.74 323.067 829.994 322.446 817.252 322.723C804.996 322.671 792.758 323.66 780.67 325.679C777.213 326.329 775.912 323.801 776.005 320.753Z" stroke="#FFB703" stroke-linecap="round" stroke-linejoin="round"/>
<path d="M787.752 315.176L808.087 291.382L830.579 313.596C822.809 310.975 787.752 315.176 787.752 315.176Z" stroke="#FFB703" stroke-linecap="round" stroke-linejoin="round"/>
<path d="M820.542 302.312L836.955 289.151L850.803 299.041L851.324 314.488L830.58 313.484" stroke="#FFB703" stroke-linecap="round" stroke-linejoin="round"/>
<path d="M796.536 289.519C796.724 287.649 795.097 285.954 792.901 285.732C790.705 285.51 788.772 286.846 788.583 288.715C788.394 290.584 790.021 292.28 792.217 292.501C794.413 292.723 796.347 291.388 796.536 289.519Z" stroke="#FFB703" stroke-linecap="round" stroke-linejoin="round"/>
</g>
<g opacity="0.5">
<path d="M676.005 119.753L677.306 80.8642C677.157 77.1463 678.644 76.0867 680.875 75.5848C691.433 73.2612 723.627 66.1044 758.443 76.4214C762.96 77.7598 762.811 80.1392 762.737 82.2955L761.491 119.362C761.401 120.055 761.166 120.721 760.802 121.317C760.438 121.914 759.953 122.427 759.379 122.825C758.805 123.222 758.153 123.495 757.467 123.626C756.781 123.756 756.075 123.741 755.394 123.582C742.74 122.067 729.994 121.446 717.252 121.723C704.996 121.671 692.758 122.66 680.67 124.679C677.213 125.329 675.912 122.801 676.005 119.753Z" stroke="#FFB703" stroke-linecap="round" stroke-linejoin="round"/>
<path d="M687.752 114.176L708.087 90.3818L730.579 112.596C722.809 109.975 687.752 114.176 687.752 114.176Z" stroke="#FFB703" stroke-linecap="round" stroke-linejoin="round"/>
<path d="M720.542 101.312L736.955 88.1511L750.803 98.0405L751.324 113.488L730.58 112.484" stroke="#FFB703" stroke-linecap="round" stroke-linejoin="round"/>
<path d="M696.536 88.5187C696.724 86.6494 695.097 84.9543 692.901 84.7324C690.705 84.5105 688.772 85.8458 688.583 87.7151C688.394 89.5843 690.021 91.2796 692.217 91.5015C694.413 91.7234 696.347 90.3879 696.536 88.5187Z" stroke="#FFB703" stroke-linecap="round" stroke-linejoin="round"/>
</g>
</svg>
