<svg xmlns="http://www.w3.org/2000/svg" width="78" height="78" viewBox="0 0 78 78">
  <g id="Group_21" data-name="Group 21" transform="translate(0.079 0)">
    <g id="Group_8" data-name="Group 8" transform="translate(19.749 21.635)">
      <path id="Path_584" data-name="Path 584" d="M74.566,69.635v.591c-.6,1.084-1.37,1.186-2.256.3-.211-.212-.412-.434-.618-.652l-.081.057v.4q0,7.144,0,14.288a3.408,3.408,0,0,1-3.62,3.635q-12.331,0-24.663,0A3.412,3.412,0,0,1,39.7,84.616q0-7.163,0-14.325v-.379l-.1-.038c-.286.3-.558.621-.862.906a1.153,1.153,0,0,1-1.681-.063,3.726,3.726,0,0,1-.312-.49v-.591A8.271,8.271,0,0,1,37.4,68.8q3.8-3.822,7.619-7.628,3.368-3.368,6.736-6.736A5.344,5.344,0,0,1,55.695,52.8a5.5,5.5,0,0,1,3.978,1.739q7.1,7.125,14.222,14.236A8.664,8.664,0,0,1,74.566,69.635Zm-13,16.249H61.9q3.065,0,6.129,0a1.071,1.071,0,0,0,1.216-1.227q0-8.436-.009-16.873a.84.84,0,0,0-.219-.537Q63.511,61.712,57.983,56.2a3.1,3.1,0,0,0-4.648,0Q47.81,61.716,42.3,67.247a.84.84,0,0,0-.22.537Q42.06,76.2,42.068,84.62c0,.879.38,1.263,1.253,1.264q3.028,0,6.055,0c.118,0,.236-.011.373-.017v-.472q0-4.357,0-8.713a3.688,3.688,0,0,1,3.8-3.8c1.366,0,2.732,0,4.1,0a3.7,3.7,0,0,1,3.915,3.906q0,4.32,0,8.64ZM59.2,85.869v-.3q0-4.429,0-8.857a1.337,1.337,0,0,0-1.466-1.465q-2.048,0-4.1,0a1.352,1.352,0,0,0-1.527,1.515q0,4.355,0,8.71v.4Z" transform="translate(-36.75 -52.801)" fill="#97144d"/>
    </g>
    <rect id="Rectangle_688" data-name="Rectangle 688" width="78" height="78" transform="translate(-0.079 0)" fill="none"/>
  </g>
</svg>
